<mxfile host="app.diagrams.net" modified="2020-09-26T03:49:51.704Z" agent="5.0 (Windows NT 10.0; Win64; x64) AppleWebKit/537.36 (KHTML, like Gecko) Chrome/85.0.4183.121 Safari/537.36" etag="v610YPsgYTcevUEkdJyb" version="13.7.5" type="github" pages="3">
  <diagram id="BG0jFZCEIFV9mwDypDCe" name="Page-1">
    <mxGraphModel dx="4890" dy="2177" grid="1" gridSize="10" guides="1" tooltips="1" connect="1" arrows="1" fold="1" page="1" pageScale="1" pageWidth="827" pageHeight="1169" math="0" shadow="0">
      <root>
        <mxCell id="0" />
        <mxCell id="1" parent="0" />
        <mxCell id="ijgLHvHHPqIhgSlT_m2k-1" value="" style="rounded=1;whiteSpace=wrap;html=1;strokeWidth=2;fillWeight=4;hachureGap=8;hachureAngle=45;sketch=1;labelBackgroundColor=#ffffff;arcSize=0;fontColor=#FFFF33;fillColor=#E6E6E6;" parent="1" vertex="1">
          <mxGeometry x="-670" y="15" width="1200" height="135" as="geometry" />
        </mxCell>
        <mxCell id="589lS48BiY-n1jW3vcGF-1" value="" style="rounded=0;whiteSpace=wrap;html=1;direction=west;" parent="1" vertex="1">
          <mxGeometry x="-670" y="150" width="1200" height="1100" as="geometry" />
        </mxCell>
        <mxCell id="589lS48BiY-n1jW3vcGF-11" value="Carrito" style="text;html=1;strokeColor=none;fillColor=none;align=center;verticalAlign=middle;whiteSpace=wrap;rounded=0;" parent="1" vertex="1">
          <mxGeometry x="414" y="90" width="40" height="20" as="geometry" />
        </mxCell>
        <mxCell id="pBqZ5bbq1txSpQeKEFur-1" value="" style="rounded=1;whiteSpace=wrap;html=1;strokeWidth=2;fillWeight=4;hachureGap=8;hachureAngle=45;fillColor=#1ba1e2;sketch=1;labelBackgroundColor=#ffffff;arcSize=0;" parent="1" vertex="1">
          <mxGeometry x="-670" y="204" width="1200" height="290" as="geometry" />
        </mxCell>
        <mxCell id="589lS48BiY-n1jW3vcGF-31" value="" style="triangle;whiteSpace=wrap;html=1;rotation=-180;" parent="1" vertex="1">
          <mxGeometry x="-660" y="300" width="60" height="80" as="geometry" />
        </mxCell>
        <mxCell id="589lS48BiY-n1jW3vcGF-30" value="" style="triangle;whiteSpace=wrap;html=1;" parent="1" vertex="1">
          <mxGeometry x="454" y="310" width="60" height="80" as="geometry" />
        </mxCell>
        <mxCell id="pBqZ5bbq1txSpQeKEFur-2" value="IMG" style="text;html=1;strokeColor=none;fillColor=none;align=center;verticalAlign=middle;whiteSpace=wrap;rounded=0;labelBackgroundColor=#ffffff;sketch=0;" parent="1" vertex="1">
          <mxGeometry x="-60" y="330" width="40" height="20" as="geometry" />
        </mxCell>
        <mxCell id="SCo4avZ1cd6l3sFi-VFI-3" value="" style="rounded=1;whiteSpace=wrap;html=1;strokeWidth=2;fillWeight=4;hachureGap=8;hachureAngle=45;sketch=1;labelBackgroundColor=#ffffff;fillColor=#FF0000;arcSize=0;" parent="1" vertex="1">
          <mxGeometry x="-630" y="513.5" width="257" height="207.5" as="geometry" />
        </mxCell>
        <mxCell id="wwvLbt2S2gfraU-z6kV4-1" value="" style="shape=image;verticalLabelPosition=bottom;labelBackgroundColor=#ffffff;verticalAlign=top;aspect=fixed;imageAspect=0;image=data:image/png,iVBORw0KGgoAAAANSUhEUgAAAOEAAADhCAMAAAAJbSJIAAAAhFBMVEX///8AAAATExNcXFzn5+fAwMBwcHBHR0fd3d3V1dX8/Pzz8/M6OjpDQ0Otra2FhYXv7+8uLi7Kysq3t7d7e3vj4+OdnZ2ysrKLi4tiYmLHx8fX19ccHBybm5uqqqokJCRRUVE0NDSKiopsbGwoKCiAgIAXFxcNDQ0eHh5WVlaTk5NgYGDDl8T0AAAJb0lEQVR4nO2daVvqPBCGBVlbFxYRQUFwQ/H//7/z8h6P5knTZibNJK1X7o9K2jxtJ8tkMjk7SyQSiUQikUgkEglP5P0rK/NR7Fq6Mxl0SLzNY9fUkcU7TeB/vMauqxt7ssBO5zZ2ZV24YgjsHPLY1XVgx1HYWcaurgMHlsJB7Oo6wFPYiV1dBy55ClvYK97yFG5j15dPzlP4Ebu+DsxYCrtZ7Po6MBpyJI5jV9eJ+9vrCp4eVIWb2JWV4FlVeB67NhLMVYWHSezqCLD4BYZoAcY9x9i1keBGVbiLXRsJwBA7bZxB2cBxTz92dSS4UBXexa6NBE+qwsfYtZFgDZ/pb+wRJ7/fEMGbcxO7NhLcqQr3sWsjAU4iF7GrI0AOA7e2uvcrgVlyG32KVsBhNW2jK8PG+Ncb4hkobKFP0c4nSOy2gLfhhjX62nbaCOdjW9gv10QYK54Zfam4UfToEomr/U3jia6QtVjcHKZ0hS01RM6K54X9ag2E45FopyGuGArn9ss1EE6P2ItdWSdYy/KPsWvrAG9F9zp2dR145gg860PZUY/OSC24XxBKTKDlnjHuhcbEmwVlUJbjU4RlgQtSEYiC4cxHcSbLjI6Bu14zCqJCkmlcutZzA98L0xsBPsUHRsGQCsG1yzND3afIWGULqHDyphbkegVxlY1ROqDCmp7dc7U0w6cYUCFY0ju93BdHtfgLvVxAhTVXWFxb4nAKnQ3pX3kIj6IHDIdTiKMSh5CDD7U8vSkOpxBWq10WydC5T35E4RS+qMUYPppvHJ37wRSiGa6pxVTgCmRnZDCFHiJ/VuoVyIYYTKGH6C107lNLBVMIZugW+IOzL2qcYiiFI6faaYArg2qIoRQu1UJvjnE/8KUPiYVCzYAhmnlHLKQDj6mz7pOAJm5KKbHeq0W2tNv0py4fmE57fIrOwcytce67CkRDbDDuu3v69os3AvdoirYYYo2ImH3supM4uAvEKVhjqROZ1g5DvKqhMLNfvgEwYjCKtKFHpA1+yzjabxCdegGivF2ncagXbY/OkOHADoz53wgFBgPwW64IBTB1Qs34ULZzHxon2uwJgpIpzQbYDiNOyAgs0XUJBULMgOEd1s3Ccg8fxL29QACFfje95ODKIAxxAyjEcUjtQHQwRELUUQCFEChS1ww1n+Kj3fEaQCF8VvV38nINUV4hmuGMcodq4Hr2JATyCr1v5IUu3G6I8gohcNJHVgT0KVqrLK+wq/7cx4Z6pnNfXKEXdz7CywYirhC+qXcv++lfoc62X4srhEU/P1mCsO2y1VlaYQbufD+7stAQbcvJ0goFzFCrgW0tUlohpvOiCbDCMkRphWCGnOj8KjAJgWWKKqwQvX91/IgqLEMUnuOjGXrb4Ao+xcdhJfBCDtW//QI2j19W/xZa0jrufATCHBuEv4wPa/vNouAxAWlsKSXUcucjzKyZgbj0mCtgY79dBHwmXhnbbxcBn8lzmrnK5tEMtbFSQ6ANJ6gw09cGwSUsuJyR/YbB8ZvDKn+x3zE0nvPKNM8Q/ZqhloTgYTwqBTqWffnvfujBwL6/KP8l7OTynZgTnfsVkzjB+FLv7nyE+vwEZ8CYzMJ7eieqL11QIawvfHIFWEHnfrkjVlAh1MB/omqqEcgpxD5ZIOs/pOUpN0Q5hdy1WjZEn6KcQu56Oxuic19MITtmgg0xxkNMITvuhQ+4NUuTEIgpBD8DJ0MAHVqQh5hCyJPHTS9Ag+bcl1KIMYQyBxlNwDddZohSCtFV5NWB8QMYYpmjS0ohxCP6c+dX3KSs8lIKSY+3LhgwXPKhCClEb59Y7l+4S8nanZBCjEcUS6RO+VKEZsCw/EXd7ckHfIqP4/txkXv4lPfG32iMwIsxN5YYwbqh3OGMOHCKh1N6ARqxpX0h1BueeLbfPQByZtgU577kuSLNSGzq3Y+okE/t95dHNE18EwzxUlKg5lOMg+w5vhN7BcQR7CtOxN+iLzO9V9hHFvgifo5YFncl8SPEQWnj4+o8Dqsnya4wkUgkopGNt4OL016rx89N31dLnvU3q1MAz2E/uJ1FPY4pm2lHDOy29b1g+fIDL/rcjyZyacqacV1PY37sFq853UbROC7LClJn7F92OsqLoPOpjIr4/b3ra8x35RcNfRJj9llel07nzW3D1aLSg7ALemJoz5a3xmVhwbbn4SHgEXC5/fgLfvAnIVGM8NxXgbI5gRvRQ8mctg91xjRpnv/IM5uMlK9JIorGAPHguR3rosR5dZDT3snOKM7mQHLatBCtDf0sKLrVZOSTe3Ziur4pOvafl4vepDd7fdP/QQ+QLA5lbtanc2Tmxccp78fQm5nVdxOeFdZtqKPJQjNz911yomuUb2y0G0IEXe8B/0nt97WuEIdEuolKd4raeWWahgnaEzXxCH4XB6010fTLOvX1dqbQeGMcLzUJNU6YCoNatFIf+VqqgJdkOIDoWF1ZIzicMSSFQzOtK6EabEkNdoaRPbTWFL98w3uvdXIVE7hX19ThwQojbVIHbbDxI4QYc9nD0OFxG1OnwC9oTTvYtrEhgaZI9pRpGJMaA3fgLe9IF4UQdeO0C6zb/04LFQhFNj5uGLbSdltDMJnRyqA19buzUgdMxjjQh/6CFvkC3hlj82u/rTfgYRpXY8EXQeu7YOZkjG+GnNSyXT7U33gCEZgMLQEu1N/Y/IKP2FfKFjP2TQ/gL6NFL0Hz9W4wXeGNh0AO0eyG542DSFrXZS2DvllhZw20e4aXiE4q2oxcy2dQ+D++wvrpPKvBOWAhIRyeQUvdjIyubr0By/CpcY4MdUGb4g9Ropb+m9qua74tHEnowR/ik/w93u9F6b8yPeqNOkbWnVvnynNbaPP/qfgyVOHI7tX47z17hfzt9JR/BQ/s3V8LzkYFR430BPjMFBT1/nzzOhgW/szYQWeIW70YvN4MipkcjPMZz5BdmxyfETlcTnZi8cW5vR7/w3EZURPgSHcVf8kN69AGeBNV4hEFgRbYSNsuuOHmpCD5YGvdhfa0CD91KsEUA7Sj/7A+cJctEZUL5yfkNgMZsLxFt7CC6+qLBmlGf7gvrMMouH5NlXHywUNLJ6WdRte9PbgvXWUbhlvD/wHPLfzHoZ4b5fbBdNGprI+0nH7hPV5s6o6q8m0hDmIXS9+J3laZTwyPYy8D/9FGmTCubgOG0ZSQz+bLq3nfr6H01vPlcj4LFV6SSCQSiUQikUgkEj/8AWJ4m338uIc8AAAAAElFTkSuQmCC;" parent="1" vertex="1">
          <mxGeometry x="407.5" y="63.5" width="66.5" height="66.5" as="geometry" />
        </mxCell>
        <mxCell id="GhCIni4YBukhAIh6-cAT-1" value="" style="shape=image;verticalLabelPosition=bottom;labelBackgroundColor=#ffffff;verticalAlign=top;aspect=fixed;imageAspect=0;image=data:image/png,iVBORw0KGgoAAAANSUhEUgAAASAAAACvCAMAAABqzPMLAAAA8FBMVEX+/v7t7e3////90xzs7Oz4+PhSFw/39/fz8/Pw8PD09PT7+/tSFw5CAABEAABJAABLAAA+AABQFA//1xxQEghODgD/2iRNCABHAApOEA5MDA1MBQBEAAf/1yj/1Cv/+vmnkIu0npvp3dvz6ef/1Cr4yy3uwC3CrqtjNjCGZWF3VE/MubfXycZoQDu9jiZdMCrOoCmsfiLarCvFlyecgn6gcR+Qc2/Fs7Hg09LUx8VxTEeTZBt0QhJ0UEy2iCNlMAqCURdVIBnluDVdJglWGwaJWReaah1YJyGZfHqLbWhrNw/JnBg1AAB6Shns49+EVBhnkIagAAAchElEQVR4nO1dC1vaTNNOUiHnhEMCKGqEVBGB2gNVtPZgT2rfpz7//9+8OzMbSNjlpEFpr2e/6/rezmOLw52dwz0zu1E0hS1NV2FtKSgUtlCw4UeaLREK+I8UFFSdPoEEiwQ1LZgoGCQYKJgkWPT30sLWhumjKqSDvjVRSEkUQsGWCAVlotBWWqGttEJbRlohUyIYW2mFttIAbYo+6wRI3TCAHqTPfwA9I0B/iYlpuPQtXCQVSLBRsCVCAQWFBJ0+gQSLBBUFgwQTBVMiGCioJFj0CRumj6ro/625S1H/ziefmz6K+nc617z0USQALeHM1A1zruvTRwbQfzvoP4BWAWgtTlFLO0VFdIpK2ilqWSetmqZh2BujzzgPIqT5BxG4/INEIfH2HGn+xejJ0xdDYfzFUgI9bDMtjL8Y/0n7onVwMGydjwwj+WLPp8+GZdKG0TsLXc/3S77vude3I/jefy1ZXVUhZluta7cUFPlyglJ5cMEQ+lsBWtG56sbFsTdGh6+w/PFe+1vJ6ooKRQduyLeOEwSBg39winW3xzfAMwGU8fbPRRHg9565Dm0a3w1uTm9C1ye8gvIBSwSfVh9y0igkZNXC9VSC8KNCdOchHHX3sjWKIy2K+62BRxC5Q/up9ZkIm0FWVWPooVt2T0bMcOxCoWDbSnQx8JiRFR2388T6pHbiZnAx49wtOmBd5wqAkyw7ajG37TCERtq8Yvtfz8XM+2vAIbxuawwWPQWRdgGBzQmPI7ZPWIptmpYMoKflYk9fKjWGPsMncNpKYXppfZcBVPRaLMPun3c6vVFMJvaMAD35DlLvQ7aBHPdCmdo/iFDHhVB2c3vadD223GBw0NaecAflFA4fQQ4Vs+UzDEpnmrB/EKFuHRAaZ9gBywMGPd1cmz5TZJUWdTJ52lgggYMrEZInj0tXUpvvIZ1MMzqGL+/HthQgu112ik4mv3ZCd4A0bS36LOysLpHaa8JWXJr7bAmmYWGIL9ZPYtEF0RZqFh2HUuwEKQZRCwBahz6bRjWM8zJ962Z4ITUyu+cBNqHvlctl1ysFCJPjdie9+bz0yeygDQHIbIdj71IeRrbopguR5xRLLMO+aMfxqDe85pzN/xgpfwdZNQ3DMGXagULGJfjgYgUNxxu0JZtI6XrubZsZFCxFUy4GLiRHjtfVDEiODO5M10RWOUDcwSvog7iDB8GWCGjzk5ScFOLRkBTi0RADRrvXOej02vgtxtFQAYEpZB2gAwq+Nbhr6WiCr1Y6Z/fp/6poHSSyDKHu5enpoDs8v9eoorhIH8QkUUEQkmjIAUKB+0XOzDKCvkAoLCEocWtQ9jzf88rHB+CEreQX6fjXCn10QI33hx92aROV70RfbU+DprVv6uCJ6vUwCMJ6iX16617RV1HOWiQ8BVk146FHRQv2bQLfHcbmFDmMrqHws3O1X629C3bwb/o3I3lCNF4I/E0IH+ok8Z8lR2fxIn3Sqc8GdFY1ZXTsZ9IX/7RPmdc4PHfhL1TCo+qLF9WjqwZ9V/cgkqdEqaW0/enqY8mHyP8HcTGt3awn1WX+oEPgVBOFtE4Z8Nl9x/BhCO2/8bivPrmXp0RpKwMKEoTNUqkZ8o8P3JNY+3O4mBbX0bqCkudf+x5/4B77DolCZhtoVrHxYe8Frdrb7w0wx2LT6Ym+empFl54XXHaHw7uP41J/6ab9x+wgTRvg/imFw34cx/1hUMJcuFS8SPpZ8XHIwNj+fFjlAL2oHv7LfLUDm+F2kZnZo+FFTN/BGA2LPiSPTt1p2zkDlITD3J00EQivG2sse2GBKL4jThW4QwrC1hk6IP/rGB+29l7525QGDhb5aptKj/hHLT7w8XmEN7G6wEkvJM9ZJ03r0WSVCxYJpmr1MH57t8rkS3S8OhqQx747e7o9NLDdT7UX6VX7+rmBjIv5K2Whr56gpbUHgLdTOtFk+giCwTcfWQYJ1kwhd7JqtrFx0/wYpb4E+w68Mu93NC1ugt/Y+bL3Iruq+z/dCgAZuN0Z9FUOUXSHFWyWaor6CK5j65nJqnHSBP9cz5Yw7GhYDije3EVIMSrfD18Iq/a6vkM+97q/wMyyn45JA/ul2sZzMU4gyr3UDsA8VuuFJfruTUj0iu7bqggQpES7KfoqsNeZCA3gQ/2DzQeo78Jm927p+evIMulLKPGJy2s7DlCMmgQf8NVvXPLV3iBefhPZI/i9QT3SnpisqquRVS1CHhAOyAHZStzv9doKVZxtrZW0mBnFmHZAEzPDlAj8Vfl8eYS0WzAy71zTHkhW1a1ZZNUAYmYsEgok6PMF7Q6TEreNu0YZdV2XkdWbFi/2aKNTyrArpSOZgXEzO/wxpq/m0luo7bFUot5VppSzDEGwFgk6CWsgq0YL43e5g09eaZWbOIgQjIs9SjRAV+2+no0PQ2jvVUhV1n9GS4Z7vaBAhd/xWC60uWTVHCGr8O8QDe0A8iHyOqHXwcxG6ftY4/g5wwGNzew1cl23tbyNKR2IDu6FucFUIx7Agw9vkCooF2XOV/H/uVDsseNrKAhuf96fj8+L2nuI9s3uKqG+DSHA76wVoEftINW4pceOZkFYFAPP8+pU8Ljpa0q3xAxnimLI1uF3cELujHaQfOEvLB0YGwuQce6lzCI6KUFKXO/EoxOPF3taLcwBdl8tMLAX1deQDPnDFTYQ+43QYyud5QhQvmTVbmPtp3SC0ZFFdAxnPfgRHyBzfMwUGz9mRvgxQB/Awsr3q2ygggYGjgDlTVZNtjglLaQFWyIU0kJCVtkfTTMiilGMbaiLjjAn9G919vcMFt39sT/a/iahGFNr7xfLFcPLlTYQAuSUbjUlo5yJy0oLCVkliQRLTQk6FySVwIeRVZASioFjCDbli/VBrCI51KIzYGLorj0pxZC4oNLBCny1kJjYUNtMsmr0cMt45DZYvggOyB+Z5NjY6vkBdpF33yxyQGwdwT/3zlcCyI7hAUBxegFAz9JZxTkoRg4ukWJoHXJAHT3x/AyhEe6wnd8vBYcjuqCvkG96Fyu5IBut2uvJAHp+smp1wf8GPlIMmwrOLF9MdjFw7BOqcQgU4+i94LOrX73VAVIOwM+V2w/cQfPIKgGkpX0Q56eikJDVLEAWxe8yGUV0HGIFNOJnI7CZ2iITFCjG/q9PwhZ6GED4BLxoGqCtNECJPoKAAG1NAUQfrBu4JEJBIuiiYBs6j1k0B6XdUj40UhgFhGUxVj8qF6U1jtr78pFoYkdhBdzJSj5IuYTHUj/RbImmY0o6X8iikF8epJxCjyI8Rgek9JBieAfWhA+qcRGLrL+mKUb1dfm3JCt6+Y0B1LxbKcwr+Fwc98BYI1l9mK1qZz4WyTjFqMMUT/PESLkvHV1UpT7tgNhW4a3DqX31ZQcKqNFCVCZLL1DZ1SmPNo1qGLRlEorxseng2Ko50QGrIE5x9920ge1f7cgq0y+qn6Bk5vZWsDEdyq51MrL1AfSQfMGkVnmpSxSD8kW3Z0x0UEYe1jg+iA6oMaPyegSTZeFgtVTaJk3KfW2jdpCBzy24ianeQyXpoZ4KgBTV0m3UxAG5s4j93tU2wrwi2Wh5kL9f5gVQLk6a5jAdt48UI74Bd83yxbSHHEraqOiAgorYG+M/e7cLqXi4Ur0DEwzINkY5kVXsONg6cTYSChKhQJJE0G0bxuFhyxxQkZX8pNfW8cORD+rn0jYqC1VXO5XGLGL2EugqIL1aLoQVl2ZXJ+VAhYSsjvUBsioKFmeuaUgWkdVMoignqwqMQYFKnGJQNuh2jEliBo1WaRuVOSBGPGZVPqpvsT3mf1ylw8q20GmAD8ic4VvnJ4proBoaUQwyBRtK0g6jGFbKl5lJG1V0QEVnd3btvvYTAplTOh0tnIZJb6EW0Fy/ZWzKGDDFb2qj2pxinMapaMhHxYU2avWQJcvbs5tjmAJgHdK7vddolIFZwiKA7BiaAuHA2oxDvYUY4qrj33KKQT2xvjl5YkaPIrwQzPd+s6+/O7c0dPiNTy763fN2pChwEnHGZpr8Z+0OynbeyMyzsyrxQfPJagKQgvFpQjHQAbWsyRMzqAqyfTVd46i92ZX5pWR3/a+K/0MDwsxXe75zenzd9P6RRzXlYgIVzOYzGzPzIKs8ihEzywgUqwoSQU8LyLCcMrVRo9MQ88UIKSB9XNQtObI2avUt0nV5DlQ9+kx/v3r4hQYZwM0F4Ou9jibJjOz2SWJ7jHDANq6fFLimnLlaEsEShSwKj8+DLiCAl6iIaPeBcARONM472MamRqs7Tbeqh99ZEN8RMmuOz/fEIKt7n7xGpThZwaA1jAWAopvbCWxw/oXBGW1EZxVKVA72HnSoV7EcmuW+E19m9l05xdgDLlrxxToH4vOtOaFntcP3pcbOBKPAL3emPbV2Vk5Vr3mDdbQRnVVwiMEpKafclopOcKxOFDLjU6IY0zWO2iewnIa0OM0cz+6b9IarHb77XW/Q2sYgOcXxlU7ZS4FG5Uy/tRFc7JIl9nXeHgaAGFrxZAcZdzMoxluv4jjb32Tt5+rhZ4HfV2uHb9+9ef/+zavfgJCX3ULQcc7UHhUnwFpS+srT59pBUMNLyloKHq4EL8oVMrByL7ZR2R6B71mW5oiHVzsNsQT7ooqr9hayruDaSIcyFhscLz0DQk7odCPIKgychAN6oPaojDQMzwQwp2iOcFJTbKPu/YDgvfOvzMD2vzTmDTbssdzRSQoriQNiqTP1CpIdhE/KjzP89HnIqj4swYllHlZgShDyxJN7HchhdFmHCC+0UauvwAFVmrIBKoZdZQ77YMbp4kM4G1NYrQMT2GE6stkstjrM6jJqJ2Ge+KlEsNJfPC+yamLASHyC3ceY7pSK55ZqUeGsIrRRq1+bFTQ8GT7vd+fQV1i1Dw0HD3RwCqvAWFkxuEl7Jfu+jF7afn6yqt5DUhZcR8neTgZ9b2PKiiRt1EMsY0hzaAxuM5LH8T9H/+WUrs8jhZ+Mmlh5YmMeZmf2asFHXQNAWwr4Q/AJNg+4Ph8FGvSRYoht1L0PjeKMFKjG6P3C0TMosuFD8D72IqWP+IwDaWJ2YOv1kxUBWgtZtUdoVd4d9wnjefoQLyYR26hQKITqvWRAqPrVr0iqIuJfC3fw5HPduz7FW6ucJJef+G1IOI6jvDurGR+0HFnVNTyU4vin/PTJeJ6e5jim/S01BFkEEw2MEQxmPNIeEP347fhPvxo01Bckx+r87BiIcsAIoHNt5kZWJf67IEYxMaQZpm4bOOaSOn2i9YIS11s0FyrxSLfJ/q+dOcPTtXcTbw8HOrZT/AxSiyxAHYzz90oqVmWiWMJPxShmpFHIpbNqjkJEKBVY4hOc/S1uC21UKLIyvib253lyVPHkw9MMkn/SFe3a2190tIwvL9s/sy+IjanPT1Yt9g9G1yU8z1Zy6PIE3dbwPg4pxcCNJemEzWNnLPW+KmejXvXlq++0iRAlt589N4OeEet2z83FLKSkXSy7JpcnYHNK5oipxgHHnEUIXsOJ1Rk5NKP3jWA66lX3sXGGHf+il502t9uQYnjn6wBo1c4q/lnvlOkEBs7TM8qBNY4fQo3jX3RA4axhjlnHf97ubIvZdZUGzf1LamJkAYpBA69lbMYOYp+g3VN0d+puR6PCojipWUOKIXVA6KBnHP+psc01Ofo7Xkc4R13qgj92mlM1tOgfTKUfD1AOThoXc2dDl6J7+QxrHOKkJs1ESScU97DBU5GWP1j4qmx/FuYbXkLJn9lX1PIdJwinKkQRjtwfGM9OVnnzkglG4bzYRISaTTkO+5+3pdweMHClkOLPXrkVyU+w5A+te3sIOWFxqsYYQUXIP9AeGebnktVlE0X8RyAY7RNvHHglbVTcJTu/xAyIs1epgSE+YmyDihtAemsYVKWbBghSSL+1eqK41hOHZtTit2cyRyzUOF5DYNkWJzhZbEMHJCZNhA9EPWEsFhgrDWEbWJGaHjiPbmhg+uHBZx0AMWFEZ8Ekh8GgjVqslCRWlLBXCYkH/+NUhAhPSaUT1EemasDgZngyBZCCE+W3G0BWp86sav0ZmSC2USuyAIbsVTb6QfGL/UT4Rzwcuh320C0o+tanD00lI/ePBuixBbNpgHC0QjKpST5VBkLCXr8IZsQcDWP3kpYRsH4IUmdgFAZA0Zy+ZBAnTvAA9CMLZvlFMRT4hTdCMRULGSywSYhowl4lyePXUJ5cUzgMTyOISIXToDhd7UicNI9ikpKrrP6aKbkmw0L55UGYNcxso0IVcFecpx+Ha4ntMX6xDVYpuKYa+izH65OmcoAcfrJumTzo6c6stvmkphDh4Svt/pTgM5u9Mn4KZTHRKslnOYxHoD4aZTzTYb5MieIjfWu+Jw4nk5qyryQhC2ztf5vFXnlr6IuAz1EJKcaJoU4AEo5NEUBr4WIPPdTL/o/Oqwo2UT2qV4q7UnwoeRSnyxPTqwRCWrl3tYNtgrapzt5BjKyCJp2N2kEaDZOLNgFumOEjoRHU5GIOSDSw1/KpNKy44TlPQ50HENaDvN7jyx05OmkcNZMUm9leqEj9c3KwWeaAjmaQD+6zvKE11kcKEFUU++ZSFcVlyCoMC40jOwqFBYJNQhLmDf2ySTUOyZyCK4vv3MCcnd+CA6oeYiCXHHwhSOuXylgfHtCzACk4ZOa1eU0aNZ09QDUO8+kBKhLyI6tmR07IYVbDfyXFp/q2LC0bEflwZJd74FRRMfDjiT6GbAdhc94J7x/f1VAEgB5INQwccBdp996H3fCtvBOIEazii+yMMwmxdUZ1a37LFNfHkgGkYQ3kejPGgOk34SjethCuGYf/NeOSF3K3kgZi9SuWMsTCEeXjjn9mpfSxbiSJIh86kfbmVwk++QGEVZmicKqgeuT/mNEoxfqiI6sB7WPvviJ6M/JM4XGsLgQI/mO9m0PrOS+yajLK6IgVner7V7LwDgsGfYqNL2KGSDtLUkSksojjjsy0PtYgFE8mRjjdMcxhuiMnsqpgYtZ4I4DxclafHf2MzEHTnR2Sim0NT/8U3ZaeUUH/iHMKGYAoDfI7dlrT1eaDciarKvahGnOvTMrCAPFalkG/OPyG1Q9hKIQPdfjdaX1gjHTq3B1GeWgFpfnpw4r2tPseTTVMylyXuHEi2Q7MXMTRqhcJVZdUP6gsElzDxEZaHwpYmfmpAg4nB0FUeKxvzY1qEEDuwjuBxtsB4lFZOL9KB4CklUds6ifHdTMA4aR2tu2Do6VsV23CGHAaoOVNDAqw0hs8ZpEPzs28A0EfrQPT69nXckRwKJRFto0BaEvFVq9sele6wBHLy2c/YZ+I1Q+iGE7zMhIB4oMcE4B0Gwvj3vlGjAEnZLUeyKeipGv/87b0iiVi93RFeWZxihG2LVEfrNJlxl/Q6orefR5nNeiU2viAjyAUJIIuCEyC1LXSlB69EPfJp0ZDUqPHS5UcScU2qcuWe5qojxXj4ac019COA4f57UKiXMJPUbAWCEYGktzIKo0DL7z6j/bJ4ffG1b6sPIQcTPyQcY1Dk+mDqXT6sjw6qlG6NfI4L6YIAD2Maqh4DrIoYZ6SDfSmfCXlH9hblKTjlBrVB4om0wdbq8HNJIxxC+utfOJQFYJPnmyeTsZ/m3P96BgH/0p6hRlG8oovOiCsTgd+W5PqYxAekwEhbDsHxXizLlgy7+t48vLzQoRqb+T4MGILFENIjsZtVE2uj9mnw0/JVT9ULCudrX6oV7aD8iKr45M928G7BaHs8Iv8Crzajx1pG/XIR4pxhndYSfRR4QSmE35MnJCCd4G6Fzmdm0eqmSarymKyqqTJKn0CkEF6V2pl98P8SfAjOT7oicWDL5M2Kuoq04feQJbYGN28EF7qGeXM8c0LJCy6eUFZR2dV4ddtNj7PKCHOXZjqSNqodLmAN7Jm6qN34D6TEh1a5dej0u2WOdzdQbsvr8bhHV03vu3Ji/TzFt5DIZYXiZs5bmuOPlbsw31OHtytYsP1qMjDtDx8a963AUcHfIBq98sS0Sy7U9gGkmTi0HOESU1tnj4Ux4LrkabF6SuoNoeLUeOQ6WBd3NCFpDuh2Aycv4G8itgygtth8N1A8RyAFEOlllzgn3SdJrzehHl0IfhsAkCajjPloKJT8X7KkuVZa+/HjqQ8VHuDDgjuk5qrj9Ghe6vrmGoU68dxfgDl6KTRKcJNAmhmlcavo+U3EcuBxPIHnY2GGscifTCCJgOk9WJbHevzWLLKkyvJDYI8q5AIknsU04J2PyAz2/Zf1ZbcRCyJlryk5fA7DJLVB9FifZS7Mj8Z5XinsZJVbtHViTJBQla3HnUT59bYVNnzpZlyp7I7q+czvQ6/74gOaO9fnOPw8LrcBfpoWsf3mmHY9MoHYOwpfR5BVrfW9OIR0+oFTfLV35dKiarvdiUOCNuoTvncWEofLe7cDQbdVowBPqMPOdpNGAMeK8Rnyh2HpURL+Oq932VxkOxrQjHU5fRRTXgThi3V56HBZ33vWTUtfkd7ZfdqcUp0VBYzoMPPUDwLT6UqzLnwKWeAFpDV5W8kFxSykndA7oSL6Gv1jXgXJ2+jltur6aMu967nFW8kz+dOeyakr41XC9GZCwefixX353xfvfdLcEB8upxRjNz0Gb+ADYTxC9hAkN1pnwh5ktXpvEO1OmHdIfr6da6vFoyQT5eXuoaanz7PTlZFX2aMLtFXs5To00r0NWmj3pu56rOyb13ja0TpXYmmOvbV/y6ZEsHiAx7uhZHvA8sFoAflC7MVMvo3WM5nKdHS9HXcRrXy12eTdhD/SdTF24GLFe/9zGGYLD50GrV5Yq5Dn+cmqzKn2OFVosbVUvSVt1GD2FyHPg8jq5IXiWeE5d+gLhPscUpUf7eYvnKK4Z7b69Jn/hvUM8JS7zicFha841B8p6BqxmdEthdW9McjnP6ttTZ9tma945B2IjdVFMjO1kA1Et8BlUD4mX3hEX1tfJtPX/n9bzCpuQ59NoWsCtHH0OKPdCS6Mr+iX8M2qgOvBFqnPs9OVsUnpmktfn3F7u/Z9DVpo7bgnZ5PvYOWAygvsiqQQ00bJSlR8HqGr64eeUQxrPXro6xEVlNSHm8LFwQkh9A4I1/tvZdXiZI2amw+hT6L3xaurpWspgWb/5tzugOu2Pglo6/URi16/SfS5+nGgJfOXLX7S/LV2744g09tVEYxlCfTJ2OqimCqT0E1phTSogMys6JQ0eej4oxi6E+nz2YBBL5D0/rXJVlKVPuK11MFxbb5hA9sLQCpD1cIk8eY3xKz7b0/TCCqvnxVxxu33J7xhPosBmjtTlpCDjWTuq8O20Sfjvb39vb2j179oovZvSFOhj2pPnPJqs7WmKbpuDi3WyAUFgoFUUh+kcLoK+XVDf/bly9fPvtw1TjMO59FhWfQZyYKCr68Mgekt1bdidFt0iuubO8kN9Y77llOT35lfeQ78SmpxpSgaT2vNLkoEgZCivXyAV5m/hz6PDdZlSkUd8tw42qCT718OTJycq5/IlkVBMWyRme+65fq9XrJ97zuhZXbe+L/OLI6QyHTMC8Oht1u97Z1EVumNDw/pT4SgLhC6kMVyrR61cwTs9I6JC/6ySiEf+aOlCjp1rPrk71h9KnJ6mJyuGn6PD0XSz95ZRnT2Diq8azsOS/f8aeS1b9iB/0HUBagtTvFZ6EI+ZHVRRTw8YK+QFjPb81JH135W598Tvo8K9VYZ6HrTyCrf4Wzf142/wfkU3IuRsLM0X91Se4z1ZsnHTIKqWmF1DRAm6KP+n/ymWbmEZxHuQAAAABJRU5ErkJggg==;" parent="1" vertex="1">
          <mxGeometry x="-638" y="54.25" width="127.55" height="77.5" as="geometry" />
        </mxCell>
        <mxCell id="InQ61g8GX3KDQazYjvDU-1" value="" style="rounded=1;whiteSpace=wrap;html=1;strokeWidth=2;fillWeight=4;hachureGap=8;hachureAngle=45;sketch=1;labelBackgroundColor=#ffffff;arcSize=0;fontColor=#FFFF33;fillColor=#E6E6E6;" parent="1" vertex="1">
          <mxGeometry x="-670" y="1250" width="1200" height="620" as="geometry" />
        </mxCell>
        <mxCell id="H1LemnDPPANKVg9SuSF7-3" value="" style="rounded=1;whiteSpace=wrap;html=1;rotation=90;" parent="1" vertex="1">
          <mxGeometry x="470" y="480" width="90" height="10" as="geometry" />
        </mxCell>
        <mxCell id="qrgbEH5VTMP8Scfg0ZN3-1" value="" style="rounded=1;whiteSpace=wrap;html=1;strokeWidth=2;fillWeight=4;hachureGap=8;hachureAngle=45;sketch=1;labelBackgroundColor=#ffffff;fillColor=#FF0000;arcSize=0;" parent="1" vertex="1">
          <mxGeometry x="-340" y="513.5" width="257" height="207.5" as="geometry" />
        </mxCell>
        <mxCell id="qrgbEH5VTMP8Scfg0ZN3-2" value="" style="rounded=1;whiteSpace=wrap;html=1;strokeWidth=2;fillWeight=4;hachureGap=8;hachureAngle=45;sketch=1;labelBackgroundColor=#ffffff;fillColor=#FF0000;arcSize=0;" parent="1" vertex="1">
          <mxGeometry x="-53" y="513.5" width="257" height="207.5" as="geometry" />
        </mxCell>
        <mxCell id="qrgbEH5VTMP8Scfg0ZN3-3" value="" style="rounded=1;whiteSpace=wrap;html=1;strokeWidth=2;fillWeight=4;hachureGap=8;hachureAngle=45;sketch=1;labelBackgroundColor=#ffffff;fillColor=#FF0000;arcSize=0;" parent="1" vertex="1">
          <mxGeometry x="234" y="513.5" width="257" height="207.5" as="geometry" />
        </mxCell>
        <mxCell id="ki-erevPDeFbyJe1W8QN-1" value="" style="triangle;whiteSpace=wrap;html=1;fontSize=22;rotation=-180;" vertex="1" parent="1">
          <mxGeometry x="-631.37" y="610" width="30" height="30" as="geometry" />
        </mxCell>
        <mxCell id="ki-erevPDeFbyJe1W8QN-2" value="" style="triangle;whiteSpace=wrap;html=1;fontSize=22;" vertex="1" parent="1">
          <mxGeometry x="461" y="602.25" width="30" height="30" as="geometry" />
        </mxCell>
        <mxCell id="RIZ4DU8flVhzeo1Z7-tK-1" value="Novedades" style="text;html=1;strokeColor=none;fillColor=none;align=center;verticalAlign=middle;whiteSpace=wrap;rounded=0;fontSize=40;" vertex="1" parent="1">
          <mxGeometry x="-303.5" y="167" width="507.5" height="20" as="geometry" />
        </mxCell>
        <mxCell id="cz45criyzoRM1_SjAbWR-1" value="Los mejores produtos" style="text;html=1;strokeColor=none;fillColor=none;align=center;verticalAlign=middle;whiteSpace=wrap;rounded=0;fontSize=40;" vertex="1" parent="1">
          <mxGeometry x="-331.44" y="769" width="507.5" height="20" as="geometry" />
        </mxCell>
        <mxCell id="cz45criyzoRM1_SjAbWR-2" value="" style="rounded=1;whiteSpace=wrap;html=1;strokeWidth=2;fillWeight=4;hachureGap=8;hachureAngle=45;sketch=1;labelBackgroundColor=#ffffff;fillColor=#FF0000;arcSize=0;" vertex="1" parent="1">
          <mxGeometry x="43.31" y="931.5699999999999" width="204" height="248.43" as="geometry" />
        </mxCell>
        <mxCell id="cz45criyzoRM1_SjAbWR-3" value="" style="rounded=1;whiteSpace=wrap;html=1;strokeWidth=2;fillWeight=4;hachureGap=8;hachureAngle=45;sketch=1;labelBackgroundColor=#ffffff;fillColor=#FF0000;arcSize=0;" vertex="1" parent="1">
          <mxGeometry x="261.31" y="930" width="206" height="250" as="geometry" />
        </mxCell>
        <mxCell id="cz45criyzoRM1_SjAbWR-4" value="" style="rounded=1;whiteSpace=wrap;html=1;strokeWidth=2;fillWeight=4;hachureGap=8;hachureAngle=45;sketch=1;labelBackgroundColor=#ffffff;fillColor=#FF0000;arcSize=0;" vertex="1" parent="1">
          <mxGeometry x="-617.69" y="930" width="206" height="250" as="geometry" />
        </mxCell>
        <mxCell id="cz45criyzoRM1_SjAbWR-5" value="" style="rounded=1;whiteSpace=wrap;html=1;strokeWidth=2;fillWeight=4;hachureGap=8;hachureAngle=45;sketch=1;labelBackgroundColor=#ffffff;fillColor=#FF0000;arcSize=0;" vertex="1" parent="1">
          <mxGeometry x="-395.69" y="933.13" width="203" height="246.87" as="geometry" />
        </mxCell>
        <mxCell id="cz45criyzoRM1_SjAbWR-6" value="" style="rounded=1;whiteSpace=wrap;html=1;strokeWidth=2;fillWeight=4;hachureGap=8;hachureAngle=45;sketch=1;labelBackgroundColor=#ffffff;fillColor=#FF0000;arcSize=0;" vertex="1" parent="1">
          <mxGeometry x="-176.5" y="933.13" width="203" height="246.87" as="geometry" />
        </mxCell>
        <mxCell id="cz45criyzoRM1_SjAbWR-7" value="" style="triangle;whiteSpace=wrap;html=1;fontSize=22;rotation=-180;" vertex="1" parent="1">
          <mxGeometry x="-617.69" y="1050" width="30" height="30" as="geometry" />
        </mxCell>
        <mxCell id="cz45criyzoRM1_SjAbWR-8" value="" style="triangle;whiteSpace=wrap;html=1;fontSize=22;" vertex="1" parent="1">
          <mxGeometry x="437.68" y="1054" width="30" height="30" as="geometry" />
        </mxCell>
        <mxCell id="cz45criyzoRM1_SjAbWR-9" value="&lt;font style=&quot;font-size: 20px&quot;&gt;Populares&lt;/font&gt;" style="html=1;shadow=0;dashed=0;shape=mxgraph.bootstrap.rrect;rSize=5;strokeColor=none;strokeWidth=1;fillColor=#FFBC26;fontColor=#FFFFFF;whiteSpace=wrap;align=center;verticalAlign=middle;spacingLeft=0;fontStyle=0;fontSize=16;spacing=5;" vertex="1" parent="1">
          <mxGeometry x="-453.44" y="850" width="100" height="40" as="geometry" />
        </mxCell>
        <mxCell id="cz45criyzoRM1_SjAbWR-10" value="&lt;span style=&quot;font-size: 20px&quot;&gt;Especiales&lt;/span&gt;" style="html=1;shadow=0;dashed=0;shape=mxgraph.bootstrap.rrect;rSize=5;strokeColor=none;strokeWidth=1;fillColor=#FFBC26;fontColor=#FFFFFF;whiteSpace=wrap;align=center;verticalAlign=middle;spacingLeft=0;fontStyle=0;fontSize=16;spacing=5;" vertex="1" parent="1">
          <mxGeometry x="146.31" y="850" width="180" height="40" as="geometry" />
        </mxCell>
        <mxCell id="cz45criyzoRM1_SjAbWR-11" value="&lt;font style=&quot;font-size: 20px&quot;&gt;Mas Vendidos&lt;/font&gt;" style="html=1;shadow=0;dashed=0;shape=mxgraph.bootstrap.rrect;rSize=5;strokeColor=none;strokeWidth=1;fillColor=#FFBC26;fontColor=#FFFFFF;whiteSpace=wrap;align=center;verticalAlign=middle;spacingLeft=0;fontStyle=0;fontSize=16;spacing=5;" vertex="1" parent="1">
          <mxGeometry x="-77.19" y="850" width="180" height="40" as="geometry" />
        </mxCell>
        <mxCell id="cz45criyzoRM1_SjAbWR-12" value="&lt;font style=&quot;font-size: 20px&quot;&gt;Nuevos Productos&lt;/font&gt;" style="html=1;shadow=0;dashed=0;shape=mxgraph.bootstrap.rrect;rSize=5;strokeColor=none;strokeWidth=1;fillColor=#FFBC26;fontColor=#FFFFFF;whiteSpace=wrap;align=center;verticalAlign=middle;spacingLeft=0;fontStyle=0;fontSize=16;spacing=5;" vertex="1" parent="1">
          <mxGeometry x="-304.69" y="850" width="180" height="40" as="geometry" />
        </mxCell>
        <mxCell id="pJu4dKrVX2UWlVyb0-5L-1" value="Productos" style="html=1;shadow=0;dashed=0;shape=mxgraph.bootstrap.rrect;rSize=5;strokeColor=none;strokeWidth=1;fillColor=#6C767D;fontColor=#FFFFFF;whiteSpace=wrap;align=left;verticalAlign=middle;spacingLeft=10;fontStyle=1;fontSize=18;" vertex="1" parent="1">
          <mxGeometry x="-483" y="76.75" width="110" height="40" as="geometry" />
        </mxCell>
        <mxCell id="pJu4dKrVX2UWlVyb0-5L-2" value="Quienes Somos?" style="html=1;shadow=0;dashed=0;shape=mxgraph.bootstrap.rrect;rSize=5;strokeColor=none;strokeWidth=1;fillColor=#6C767D;fontColor=#FFFFFF;whiteSpace=wrap;align=left;verticalAlign=middle;spacingLeft=10;fontStyle=1;fontSize=18;" vertex="1" parent="1">
          <mxGeometry x="-90" y="76" width="170" height="40" as="geometry" />
        </mxCell>
        <mxCell id="pJu4dKrVX2UWlVyb0-5L-3" value="Envios" style="html=1;shadow=0;dashed=0;shape=mxgraph.bootstrap.rrect;rSize=5;strokeColor=none;strokeWidth=1;fillColor=#6C767D;fontColor=#FFFFFF;whiteSpace=wrap;align=left;verticalAlign=middle;spacingLeft=10;fontStyle=1;fontSize=18;" vertex="1" parent="1">
          <mxGeometry x="-192.69" y="76.75" width="81" height="40" as="geometry" />
        </mxCell>
        <mxCell id="pJu4dKrVX2UWlVyb0-5L-4" value="Promociones" style="html=1;shadow=0;dashed=0;shape=mxgraph.bootstrap.rrect;rSize=5;strokeColor=none;strokeWidth=1;fillColor=#6C767D;fontColor=#FFFFFF;whiteSpace=wrap;align=left;verticalAlign=middle;spacingLeft=10;fontStyle=1;fontSize=18;" vertex="1" parent="1">
          <mxGeometry x="-353.44" y="76.75" width="140" height="40" as="geometry" />
        </mxCell>
        <mxCell id="_nGlHkFRxLHOuxVFXdnB-1" value="&lt;font style=&quot;font-size: 15px&quot;&gt;Login&lt;/font&gt;" style="html=1;shadow=0;dashed=0;shape=mxgraph.bootstrap.rrect;rSize=5;strokeColor=none;strokeWidth=1;fillColor=#6C767D;fontColor=#FFFFFF;whiteSpace=wrap;align=left;verticalAlign=middle;spacingLeft=10;fontStyle=1;fontSize=18;" vertex="1" parent="1">
          <mxGeometry x="303.18" y="60" width="61.63" height="30" as="geometry" />
        </mxCell>
        <mxCell id="_nGlHkFRxLHOuxVFXdnB-2" value="&lt;font style=&quot;font-size: 15px&quot;&gt;Registrarse&lt;/font&gt;" style="html=1;shadow=0;dashed=0;shape=mxgraph.bootstrap.rrect;rSize=5;strokeColor=none;strokeWidth=1;fillColor=#6C767D;fontColor=#FFFFFF;whiteSpace=wrap;align=left;verticalAlign=middle;spacingLeft=10;fontStyle=1;fontSize=18;" vertex="1" parent="1">
          <mxGeometry x="282" y="100" width="108" height="30" as="geometry" />
        </mxCell>
        <mxCell id="_nGlHkFRxLHOuxVFXdnB-3" value="" style="group" vertex="1" connectable="0" parent="1">
          <mxGeometry x="80" y="70" width="450" height="85" as="geometry" />
        </mxCell>
        <mxCell id="H1LemnDPPANKVg9SuSF7-1" value="" style="rounded=0;whiteSpace=wrap;html=1;fontSize=14;" parent="_nGlHkFRxLHOuxVFXdnB-3" vertex="1">
          <mxGeometry x="26.250000000000004" width="157.50000000000003" height="45" as="geometry" />
        </mxCell>
        <mxCell id="H1LemnDPPANKVg9SuSF7-2" value="&lt;font style=&quot;font-size: 16px&quot;&gt;Que estas buscando?&lt;/font&gt;" style="text;html=1;strokeColor=none;fillColor=none;align=center;verticalAlign=middle;whiteSpace=wrap;rounded=0;fontSize=14;" parent="_nGlHkFRxLHOuxVFXdnB-3" vertex="1">
          <mxGeometry y="5" width="210.00000000000003" height="36" as="geometry" />
        </mxCell>
        <mxCell id="dZI2sDPwcv9eS5p8_uuB-2" value="&lt;font style=&quot;font-size: 30px&quot;&gt;Sobre nosotros&lt;/font&gt;" style="text;html=1;strokeColor=none;fillColor=none;align=center;verticalAlign=middle;whiteSpace=wrap;rounded=0;fontSize=40;" vertex="1" parent="1">
          <mxGeometry x="90.00000000000006" y="1650" width="507.5" height="20" as="geometry" />
        </mxCell>
        <mxCell id="dZI2sDPwcv9eS5p8_uuB-3" value="&lt;font style=&quot;font-size: 30px&quot;&gt;Newsletter&lt;/font&gt;" style="text;html=1;strokeColor=none;fillColor=none;align=center;verticalAlign=middle;whiteSpace=wrap;rounded=0;fontSize=40;" vertex="1" parent="1">
          <mxGeometry x="-348.5" y="1660" width="507.5" height="20" as="geometry" />
        </mxCell>
        <mxCell id="dZI2sDPwcv9eS5p8_uuB-5" value="&lt;font style=&quot;font-size: 30px&quot;&gt;Contactanos&lt;/font&gt;" style="text;html=1;strokeColor=none;fillColor=none;align=center;verticalAlign=middle;whiteSpace=wrap;rounded=0;fontSize=40;" vertex="1" parent="1">
          <mxGeometry x="-740" y="1660" width="507.5" height="20" as="geometry" />
        </mxCell>
        <mxCell id="dZI2sDPwcv9eS5p8_uuB-13" value="" style="group" vertex="1" connectable="0" parent="1">
          <mxGeometry x="-180" y="1714" width="210" height="40" as="geometry" />
        </mxCell>
        <mxCell id="dZI2sDPwcv9eS5p8_uuB-11" value="Email" style="fillColor=none;strokeColor=none;align=left;fontSize=16;fontColor=#212529;" vertex="1" parent="dZI2sDPwcv9eS5p8_uuB-13">
          <mxGeometry x="10" width="200" height="40" as="geometry" />
        </mxCell>
        <mxCell id="dZI2sDPwcv9eS5p8_uuB-12" value="" style="html=1;shadow=0;dashed=0;shape=mxgraph.bootstrap.rrect;rSize=5;fillColor=none;strokeColor=#999999;align=left;spacing=15;fontSize=16;fontColor=#6C767D;" vertex="1" parent="dZI2sDPwcv9eS5p8_uuB-13">
          <mxGeometry width="200" height="40" as="geometry" />
        </mxCell>
        <mxCell id="LwlT2iocU1b41Cgp9ewb-1" value="&lt;font style=&quot;font-size: 30px&quot;&gt;Donde nos encontramos&lt;/font&gt;" style="text;html=1;strokeColor=none;fillColor=none;align=center;verticalAlign=middle;whiteSpace=wrap;rounded=0;fontSize=40;" vertex="1" parent="1">
          <mxGeometry x="-323.75" y="1280" width="507.5" height="20" as="geometry" />
        </mxCell>
        <mxCell id="LwlT2iocU1b41Cgp9ewb-2" value="" style="group" vertex="1" connectable="0" parent="1">
          <mxGeometry x="-670" y="1320" width="1290" height="300" as="geometry" />
        </mxCell>
        <mxCell id="LwlT2iocU1b41Cgp9ewb-3" value="" style="rounded=1;whiteSpace=wrap;html=1;strokeWidth=2;fillWeight=4;hachureGap=8;hachureAngle=45;fillColor=#1ba1e2;sketch=1;labelBackgroundColor=#ffffff;arcSize=0;" vertex="1" parent="LwlT2iocU1b41Cgp9ewb-2">
          <mxGeometry width="1195.4932019704431" height="300" as="geometry" />
        </mxCell>
        <mxCell id="LwlT2iocU1b41Cgp9ewb-4" value="&lt;font style=&quot;font-size: 30px&quot;&gt;Google map&lt;/font&gt;" style="text;html=1;strokeColor=none;fillColor=none;align=center;verticalAlign=middle;whiteSpace=wrap;rounded=0;fontSize=40;" vertex="1" parent="LwlT2iocU1b41Cgp9ewb-2">
          <mxGeometry x="1.6254977659457657e-13" y="140" width="1289.9999999999998" height="20" as="geometry" />
        </mxCell>
        <mxCell id="7RxbvoF5XQ61Mqs6bZx7-1" value="" style="rounded=1;whiteSpace=wrap;html=1;strokeWidth=2;fillWeight=4;hachureGap=8;hachureAngle=45;sketch=1;labelBackgroundColor=#ffffff;arcSize=0;fontColor=#FFFF33;fillColor=#E6E6E6;" vertex="1" parent="1">
          <mxGeometry x="-670" y="1780" width="1200" height="90" as="geometry" />
        </mxCell>
        <mxCell id="7RxbvoF5XQ61Mqs6bZx7-2" value="&lt;font style=&quot;font-size: 30px&quot;&gt;Copyright&lt;/font&gt;" style="text;html=1;strokeColor=none;fillColor=none;align=center;verticalAlign=middle;whiteSpace=wrap;rounded=0;fontSize=40;" vertex="1" parent="1">
          <mxGeometry x="-379.99999999999994" y="1815" width="507.5" height="20" as="geometry" />
        </mxCell>
      </root>
    </mxGraphModel>
  </diagram>
  <diagram id="2UA5lUnB6_4EVmcxn1_h" name="Page-2">
    <mxGraphModel dx="3197" dy="1270" grid="1" gridSize="10" guides="1" tooltips="1" connect="1" arrows="1" fold="1" page="1" pageScale="1" pageWidth="827" pageHeight="1169" math="0" shadow="0">
      <root>
        <mxCell id="V-jbAyR8-M4dBIKKFTTF-0" />
        <mxCell id="V-jbAyR8-M4dBIKKFTTF-1" parent="V-jbAyR8-M4dBIKKFTTF-0" />
        <mxCell id="nrf1eR2m3CPkPI6t-mbU-0" value="" style="rounded=1;whiteSpace=wrap;html=1;strokeWidth=2;fillWeight=4;hachureGap=8;hachureAngle=45;sketch=1;labelBackgroundColor=#ffffff;arcSize=0;fontColor=#FFFF33;fillColor=#E6E6E6;" vertex="1" parent="V-jbAyR8-M4dBIKKFTTF-1">
          <mxGeometry x="-670" y="1320" width="1200" height="510" as="geometry" />
        </mxCell>
        <mxCell id="ikJOgBZYbwtv8HL3u7bA-0" value="" style="rounded=0;whiteSpace=wrap;html=1;direction=west;" parent="V-jbAyR8-M4dBIKKFTTF-1" vertex="1">
          <mxGeometry x="-670" y="160" width="1200" height="1160" as="geometry" />
        </mxCell>
        <mxCell id="ssaw6KBq0S88ntUo6BeH-1" value="" style="rounded=1;whiteSpace=wrap;html=1;arcSize=50;" parent="V-jbAyR8-M4dBIKKFTTF-1" vertex="1">
          <mxGeometry x="-270" y="170" width="450" height="40" as="geometry" />
        </mxCell>
        <mxCell id="ssaw6KBq0S88ntUo6BeH-2" value="&lt;font style=&quot;font-size: 25px&quot;&gt;Que estas buscando?&lt;/font&gt;" style="text;html=1;strokeColor=none;fillColor=none;align=center;verticalAlign=middle;whiteSpace=wrap;rounded=0;" parent="V-jbAyR8-M4dBIKKFTTF-1" vertex="1">
          <mxGeometry x="-168" y="180" width="270" height="20" as="geometry" />
        </mxCell>
        <mxCell id="ssaw6KBq0S88ntUo6BeH-3" value="" style="rounded=1;whiteSpace=wrap;html=1;rotation=90;" parent="V-jbAyR8-M4dBIKKFTTF-1" vertex="1">
          <mxGeometry x="470" y="320" width="100" height="10" as="geometry" />
        </mxCell>
        <mxCell id="xA3P_eha4eMNqzd0e1jj-2" value="" style="rounded=1;whiteSpace=wrap;html=1;strokeWidth=2;fillWeight=4;hachureGap=8;hachureAngle=45;sketch=1;labelBackgroundColor=#ffffff;fillColor=#FF0000;" parent="V-jbAyR8-M4dBIKKFTTF-1" vertex="1">
          <mxGeometry x="51.5" y="304.70000000000005" width="201" height="170" as="geometry" />
        </mxCell>
        <mxCell id="xA3P_eha4eMNqzd0e1jj-4" value="" style="rounded=1;whiteSpace=wrap;html=1;strokeWidth=2;fillWeight=4;hachureGap=8;hachureAngle=45;sketch=1;labelBackgroundColor=#ffffff;fillColor=#FF0000;" parent="V-jbAyR8-M4dBIKKFTTF-1" vertex="1">
          <mxGeometry x="269.5" y="303.13" width="193" height="170" as="geometry" />
        </mxCell>
        <mxCell id="xA3P_eha4eMNqzd0e1jj-14" value="" style="rounded=1;whiteSpace=wrap;html=1;strokeWidth=2;fillWeight=4;hachureGap=8;hachureAngle=45;sketch=1;labelBackgroundColor=#ffffff;arcSize=0;fontColor=#FFFF33;fillColor=#E6E6E6;" parent="V-jbAyR8-M4dBIKKFTTF-1" vertex="1">
          <mxGeometry x="-669" y="25" width="1200" height="135" as="geometry" />
        </mxCell>
        <mxCell id="sYtpgCijjGSLQTvS1axn-5" value="" style="rounded=1;whiteSpace=wrap;html=1;strokeWidth=2;fillWeight=4;hachureGap=8;hachureAngle=45;sketch=1;labelBackgroundColor=#ffffff;fillColor=#FF0000;" parent="V-jbAyR8-M4dBIKKFTTF-1" vertex="1">
          <mxGeometry x="-602.5" y="300" width="195" height="170" as="geometry" />
        </mxCell>
        <mxCell id="sYtpgCijjGSLQTvS1axn-6" value="" style="rounded=1;whiteSpace=wrap;html=1;strokeWidth=2;fillWeight=4;hachureGap=8;hachureAngle=45;sketch=1;labelBackgroundColor=#ffffff;fillColor=#FF0000;" parent="V-jbAyR8-M4dBIKKFTTF-1" vertex="1">
          <mxGeometry x="-387.5" y="303.13" width="200" height="170" as="geometry" />
        </mxCell>
        <mxCell id="sYtpgCijjGSLQTvS1axn-7" value="" style="rounded=1;whiteSpace=wrap;html=1;strokeWidth=2;fillWeight=4;hachureGap=8;hachureAngle=45;sketch=1;labelBackgroundColor=#ffffff;fillColor=#FF0000;" parent="V-jbAyR8-M4dBIKKFTTF-1" vertex="1">
          <mxGeometry x="-167.5" y="303.13" width="200" height="170" as="geometry" />
        </mxCell>
        <mxCell id="4lUBqZHKsbTSKRKANzik-0" value="Carrito" style="text;html=1;strokeColor=none;fillColor=none;align=center;verticalAlign=middle;whiteSpace=wrap;rounded=0;" vertex="1" parent="V-jbAyR8-M4dBIKKFTTF-1">
          <mxGeometry x="414" y="90" width="40" height="20" as="geometry" />
        </mxCell>
        <mxCell id="4lUBqZHKsbTSKRKANzik-1" value="" style="shape=image;verticalLabelPosition=bottom;labelBackgroundColor=#ffffff;verticalAlign=top;aspect=fixed;imageAspect=0;image=data:image/png,iVBORw0KGgoAAAANSUhEUgAAAOEAAADhCAMAAAAJbSJIAAAAhFBMVEX///8AAAATExNcXFzn5+fAwMBwcHBHR0fd3d3V1dX8/Pzz8/M6OjpDQ0Otra2FhYXv7+8uLi7Kysq3t7d7e3vj4+OdnZ2ysrKLi4tiYmLHx8fX19ccHBybm5uqqqokJCRRUVE0NDSKiopsbGwoKCiAgIAXFxcNDQ0eHh5WVlaTk5NgYGDDl8T0AAAJb0lEQVR4nO2daVvqPBCGBVlbFxYRQUFwQ/H//7/z8h6P5knTZibNJK1X7o9K2jxtJ8tkMjk7SyQSiUQikUgkEglP5P0rK/NR7Fq6Mxl0SLzNY9fUkcU7TeB/vMauqxt7ssBO5zZ2ZV24YgjsHPLY1XVgx1HYWcaurgMHlsJB7Oo6wFPYiV1dBy55ClvYK97yFG5j15dPzlP4Ebu+DsxYCrtZ7Po6MBpyJI5jV9eJ+9vrCp4eVIWb2JWV4FlVeB67NhLMVYWHSezqCLD4BYZoAcY9x9i1keBGVbiLXRsJwBA7bZxB2cBxTz92dSS4UBXexa6NBE+qwsfYtZFgDZ/pb+wRJ7/fEMGbcxO7NhLcqQr3sWsjAU4iF7GrI0AOA7e2uvcrgVlyG32KVsBhNW2jK8PG+Ncb4hkobKFP0c4nSOy2gLfhhjX62nbaCOdjW9gv10QYK54Zfam4UfToEomr/U3jia6QtVjcHKZ0hS01RM6K54X9ag2E45FopyGuGArn9ss1EE6P2ItdWSdYy/KPsWvrAG9F9zp2dR145gg860PZUY/OSC24XxBKTKDlnjHuhcbEmwVlUJbjU4RlgQtSEYiC4cxHcSbLjI6Bu14zCqJCkmlcutZzA98L0xsBPsUHRsGQCsG1yzND3afIWGULqHDyphbkegVxlY1ROqDCmp7dc7U0w6cYUCFY0ju93BdHtfgLvVxAhTVXWFxb4nAKnQ3pX3kIj6IHDIdTiKMSh5CDD7U8vSkOpxBWq10WydC5T35E4RS+qMUYPppvHJ37wRSiGa6pxVTgCmRnZDCFHiJ/VuoVyIYYTKGH6C107lNLBVMIZugW+IOzL2qcYiiFI6faaYArg2qIoRQu1UJvjnE/8KUPiYVCzYAhmnlHLKQDj6mz7pOAJm5KKbHeq0W2tNv0py4fmE57fIrOwcytce67CkRDbDDuu3v69os3AvdoirYYYo2ImH3supM4uAvEKVhjqROZ1g5DvKqhMLNfvgEwYjCKtKFHpA1+yzjabxCdegGivF2ncagXbY/OkOHADoz53wgFBgPwW64IBTB1Qs34ULZzHxon2uwJgpIpzQbYDiNOyAgs0XUJBULMgOEd1s3Ccg8fxL29QACFfje95ODKIAxxAyjEcUjtQHQwRELUUQCFEChS1ww1n+Kj3fEaQCF8VvV38nINUV4hmuGMcodq4Hr2JATyCr1v5IUu3G6I8gohcNJHVgT0KVqrLK+wq/7cx4Z6pnNfXKEXdz7CywYirhC+qXcv++lfoc62X4srhEU/P1mCsO2y1VlaYQbufD+7stAQbcvJ0goFzFCrgW0tUlohpvOiCbDCMkRphWCGnOj8KjAJgWWKKqwQvX91/IgqLEMUnuOjGXrb4Ao+xcdhJfBCDtW//QI2j19W/xZa0jrufATCHBuEv4wPa/vNouAxAWlsKSXUcucjzKyZgbj0mCtgY79dBHwmXhnbbxcBn8lzmrnK5tEMtbFSQ6ANJ6gw09cGwSUsuJyR/YbB8ZvDKn+x3zE0nvPKNM8Q/ZqhloTgYTwqBTqWffnvfujBwL6/KP8l7OTynZgTnfsVkzjB+FLv7nyE+vwEZ8CYzMJ7eieqL11QIawvfHIFWEHnfrkjVlAh1MB/omqqEcgpxD5ZIOs/pOUpN0Q5hdy1WjZEn6KcQu56Oxuic19MITtmgg0xxkNMITvuhQ+4NUuTEIgpBD8DJ0MAHVqQh5hCyJPHTS9Ag+bcl1KIMYQyBxlNwDddZohSCtFV5NWB8QMYYpmjS0ohxCP6c+dX3KSs8lIKSY+3LhgwXPKhCClEb59Y7l+4S8nanZBCjEcUS6RO+VKEZsCw/EXd7ckHfIqP4/txkXv4lPfG32iMwIsxN5YYwbqh3OGMOHCKh1N6ARqxpX0h1BueeLbfPQByZtgU577kuSLNSGzq3Y+okE/t95dHNE18EwzxUlKg5lOMg+w5vhN7BcQR7CtOxN+iLzO9V9hHFvgifo5YFncl8SPEQWnj4+o8Dqsnya4wkUgkopGNt4OL016rx89N31dLnvU3q1MAz2E/uJ1FPY4pm2lHDOy29b1g+fIDL/rcjyZyacqacV1PY37sFq853UbROC7LClJn7F92OsqLoPOpjIr4/b3ra8x35RcNfRJj9llel07nzW3D1aLSg7ALemJoz5a3xmVhwbbn4SHgEXC5/fgLfvAnIVGM8NxXgbI5gRvRQ8mctg91xjRpnv/IM5uMlK9JIorGAPHguR3rosR5dZDT3snOKM7mQHLatBCtDf0sKLrVZOSTe3Ziur4pOvafl4vepDd7fdP/QQ+QLA5lbtanc2Tmxccp78fQm5nVdxOeFdZtqKPJQjNz911yomuUb2y0G0IEXe8B/0nt97WuEIdEuolKd4raeWWahgnaEzXxCH4XB6010fTLOvX1dqbQeGMcLzUJNU6YCoNatFIf+VqqgJdkOIDoWF1ZIzicMSSFQzOtK6EabEkNdoaRPbTWFL98w3uvdXIVE7hX19ThwQojbVIHbbDxI4QYc9nD0OFxG1OnwC9oTTvYtrEhgaZI9pRpGJMaA3fgLe9IF4UQdeO0C6zb/04LFQhFNj5uGLbSdltDMJnRyqA19buzUgdMxjjQh/6CFvkC3hlj82u/rTfgYRpXY8EXQeu7YOZkjG+GnNSyXT7U33gCEZgMLQEu1N/Y/IKP2FfKFjP2TQ/gL6NFL0Hz9W4wXeGNh0AO0eyG542DSFrXZS2DvllhZw20e4aXiE4q2oxcy2dQ+D++wvrpPKvBOWAhIRyeQUvdjIyubr0By/CpcY4MdUGb4g9Ropb+m9qua74tHEnowR/ik/w93u9F6b8yPeqNOkbWnVvnynNbaPP/qfgyVOHI7tX47z17hfzt9JR/BQ/s3V8LzkYFR430BPjMFBT1/nzzOhgW/szYQWeIW70YvN4MipkcjPMZz5BdmxyfETlcTnZi8cW5vR7/w3EZURPgSHcVf8kN69AGeBNV4hEFgRbYSNsuuOHmpCD5YGvdhfa0CD91KsEUA7Sj/7A+cJctEZUL5yfkNgMZsLxFt7CC6+qLBmlGf7gvrMMouH5NlXHywUNLJ6WdRte9PbgvXWUbhlvD/wHPLfzHoZ4b5fbBdNGprI+0nH7hPV5s6o6q8m0hDmIXS9+J3laZTwyPYy8D/9FGmTCubgOG0ZSQz+bLq3nfr6H01vPlcj4LFV6SSCQSiUQikUgkEj/8AWJ4m338uIc8AAAAAElFTkSuQmCC;" vertex="1" parent="V-jbAyR8-M4dBIKKFTTF-1">
          <mxGeometry x="407.5" y="63.5" width="66.5" height="66.5" as="geometry" />
        </mxCell>
        <mxCell id="4lUBqZHKsbTSKRKANzik-2" value="" style="shape=image;verticalLabelPosition=bottom;labelBackgroundColor=#ffffff;verticalAlign=top;aspect=fixed;imageAspect=0;image=data:image/png,iVBORw0KGgoAAAANSUhEUgAAASAAAACvCAMAAABqzPMLAAAA8FBMVEX+/v7t7e3////90xzs7Oz4+PhSFw/39/fz8/Pw8PD09PT7+/tSFw5CAABEAABJAABLAAA+AABQFA//1xxQEghODgD/2iRNCABHAApOEA5MDA1MBQBEAAf/1yj/1Cv/+vmnkIu0npvp3dvz6ef/1Cr4yy3uwC3CrqtjNjCGZWF3VE/MubfXycZoQDu9jiZdMCrOoCmsfiLarCvFlyecgn6gcR+Qc2/Fs7Hg09LUx8VxTEeTZBt0QhJ0UEy2iCNlMAqCURdVIBnluDVdJglWGwaJWReaah1YJyGZfHqLbWhrNw/JnBg1AAB6Shns49+EVBhnkIagAAAchElEQVR4nO1dC1vaTNNOUiHnhEMCKGqEVBGB2gNVtPZgT2rfpz7//9+8OzMbSNjlpEFpr2e/6/rezmOLw52dwz0zu1E0hS1NV2FtKSgUtlCw4UeaLREK+I8UFFSdPoEEiwQ1LZgoGCQYKJgkWPT30sLWhumjKqSDvjVRSEkUQsGWCAVlotBWWqGttEJbRlohUyIYW2mFttIAbYo+6wRI3TCAHqTPfwA9I0B/iYlpuPQtXCQVSLBRsCVCAQWFBJ0+gQSLBBUFgwQTBVMiGCioJFj0CRumj6ro/625S1H/ziefmz6K+nc617z0USQALeHM1A1zruvTRwbQfzvoP4BWAWgtTlFLO0VFdIpK2ilqWSetmqZh2BujzzgPIqT5BxG4/INEIfH2HGn+xejJ0xdDYfzFUgI9bDMtjL8Y/0n7onVwMGydjwwj+WLPp8+GZdKG0TsLXc/3S77vude3I/jefy1ZXVUhZluta7cUFPlyglJ5cMEQ+lsBWtG56sbFsTdGh6+w/PFe+1vJ6ooKRQduyLeOEwSBg39winW3xzfAMwGU8fbPRRHg9565Dm0a3w1uTm9C1ye8gvIBSwSfVh9y0igkZNXC9VSC8KNCdOchHHX3sjWKIy2K+62BRxC5Q/up9ZkIm0FWVWPooVt2T0bMcOxCoWDbSnQx8JiRFR2388T6pHbiZnAx49wtOmBd5wqAkyw7ajG37TCERtq8Yvtfz8XM+2vAIbxuawwWPQWRdgGBzQmPI7ZPWIptmpYMoKflYk9fKjWGPsMncNpKYXppfZcBVPRaLMPun3c6vVFMJvaMAD35DlLvQ7aBHPdCmdo/iFDHhVB2c3vadD223GBw0NaecAflFA4fQQ4Vs+UzDEpnmrB/EKFuHRAaZ9gBywMGPd1cmz5TZJUWdTJ52lgggYMrEZInj0tXUpvvIZ1MMzqGL+/HthQgu112ik4mv3ZCd4A0bS36LOysLpHaa8JWXJr7bAmmYWGIL9ZPYtEF0RZqFh2HUuwEKQZRCwBahz6bRjWM8zJ962Z4ITUyu+cBNqHvlctl1ysFCJPjdie9+bz0yeygDQHIbIdj71IeRrbopguR5xRLLMO+aMfxqDe85pzN/xgpfwdZNQ3DMGXagULGJfjgYgUNxxu0JZtI6XrubZsZFCxFUy4GLiRHjtfVDEiODO5M10RWOUDcwSvog7iDB8GWCGjzk5ScFOLRkBTi0RADRrvXOej02vgtxtFQAYEpZB2gAwq+Nbhr6WiCr1Y6Z/fp/6poHSSyDKHu5enpoDs8v9eoorhIH8QkUUEQkmjIAUKB+0XOzDKCvkAoLCEocWtQ9jzf88rHB+CEreQX6fjXCn10QI33hx92aROV70RfbU+DprVv6uCJ6vUwCMJ6iX16617RV1HOWiQ8BVk146FHRQv2bQLfHcbmFDmMrqHws3O1X629C3bwb/o3I3lCNF4I/E0IH+ok8Z8lR2fxIn3Sqc8GdFY1ZXTsZ9IX/7RPmdc4PHfhL1TCo+qLF9WjqwZ9V/cgkqdEqaW0/enqY8mHyP8HcTGt3awn1WX+oEPgVBOFtE4Z8Nl9x/BhCO2/8bivPrmXp0RpKwMKEoTNUqkZ8o8P3JNY+3O4mBbX0bqCkudf+x5/4B77DolCZhtoVrHxYe8Frdrb7w0wx2LT6Ym+empFl54XXHaHw7uP41J/6ab9x+wgTRvg/imFw34cx/1hUMJcuFS8SPpZ8XHIwNj+fFjlAL2oHv7LfLUDm+F2kZnZo+FFTN/BGA2LPiSPTt1p2zkDlITD3J00EQivG2sse2GBKL4jThW4QwrC1hk6IP/rGB+29l7525QGDhb5aptKj/hHLT7w8XmEN7G6wEkvJM9ZJ03r0WSVCxYJpmr1MH57t8rkS3S8OhqQx747e7o9NLDdT7UX6VX7+rmBjIv5K2Whr56gpbUHgLdTOtFk+giCwTcfWQYJ1kwhd7JqtrFx0/wYpb4E+w68Mu93NC1ugt/Y+bL3Iruq+z/dCgAZuN0Z9FUOUXSHFWyWaor6CK5j65nJqnHSBP9cz5Yw7GhYDije3EVIMSrfD18Iq/a6vkM+97q/wMyyn45JA/ul2sZzMU4gyr3UDsA8VuuFJfruTUj0iu7bqggQpES7KfoqsNeZCA3gQ/2DzQeo78Jm927p+evIMulLKPGJy2s7DlCMmgQf8NVvXPLV3iBefhPZI/i9QT3SnpisqquRVS1CHhAOyAHZStzv9doKVZxtrZW0mBnFmHZAEzPDlAj8Vfl8eYS0WzAy71zTHkhW1a1ZZNUAYmYsEgok6PMF7Q6TEreNu0YZdV2XkdWbFi/2aKNTyrArpSOZgXEzO/wxpq/m0luo7bFUot5VppSzDEGwFgk6CWsgq0YL43e5g09eaZWbOIgQjIs9SjRAV+2+no0PQ2jvVUhV1n9GS4Z7vaBAhd/xWC60uWTVHCGr8O8QDe0A8iHyOqHXwcxG6ftY4/g5wwGNzew1cl23tbyNKR2IDu6FucFUIx7Agw9vkCooF2XOV/H/uVDsseNrKAhuf96fj8+L2nuI9s3uKqG+DSHA76wVoEftINW4pceOZkFYFAPP8+pU8Ljpa0q3xAxnimLI1uF3cELujHaQfOEvLB0YGwuQce6lzCI6KUFKXO/EoxOPF3taLcwBdl8tMLAX1deQDPnDFTYQ+43QYyud5QhQvmTVbmPtp3SC0ZFFdAxnPfgRHyBzfMwUGz9mRvgxQB/Awsr3q2ygggYGjgDlTVZNtjglLaQFWyIU0kJCVtkfTTMiilGMbaiLjjAn9G919vcMFt39sT/a/iahGFNr7xfLFcPLlTYQAuSUbjUlo5yJy0oLCVkliQRLTQk6FySVwIeRVZASioFjCDbli/VBrCI51KIzYGLorj0pxZC4oNLBCny1kJjYUNtMsmr0cMt45DZYvggOyB+Z5NjY6vkBdpF33yxyQGwdwT/3zlcCyI7hAUBxegFAz9JZxTkoRg4ukWJoHXJAHT3x/AyhEe6wnd8vBYcjuqCvkG96Fyu5IBut2uvJAHp+smp1wf8GPlIMmwrOLF9MdjFw7BOqcQgU4+i94LOrX73VAVIOwM+V2w/cQfPIKgGkpX0Q56eikJDVLEAWxe8yGUV0HGIFNOJnI7CZ2iITFCjG/q9PwhZ6GED4BLxoGqCtNECJPoKAAG1NAUQfrBu4JEJBIuiiYBs6j1k0B6XdUj40UhgFhGUxVj8qF6U1jtr78pFoYkdhBdzJSj5IuYTHUj/RbImmY0o6X8iikF8epJxCjyI8Rgek9JBieAfWhA+qcRGLrL+mKUb1dfm3JCt6+Y0B1LxbKcwr+Fwc98BYI1l9mK1qZz4WyTjFqMMUT/PESLkvHV1UpT7tgNhW4a3DqX31ZQcKqNFCVCZLL1DZ1SmPNo1qGLRlEorxseng2Ko50QGrIE5x9920ge1f7cgq0y+qn6Bk5vZWsDEdyq51MrL1AfSQfMGkVnmpSxSD8kW3Z0x0UEYe1jg+iA6oMaPyegSTZeFgtVTaJk3KfW2jdpCBzy24ianeQyXpoZ4KgBTV0m3UxAG5s4j93tU2wrwi2Wh5kL9f5gVQLk6a5jAdt48UI74Bd83yxbSHHEraqOiAgorYG+M/e7cLqXi4Ur0DEwzINkY5kVXsONg6cTYSChKhQJJE0G0bxuFhyxxQkZX8pNfW8cORD+rn0jYqC1VXO5XGLGL2EugqIL1aLoQVl2ZXJ+VAhYSsjvUBsioKFmeuaUgWkdVMoignqwqMQYFKnGJQNuh2jEliBo1WaRuVOSBGPGZVPqpvsT3mf1ylw8q20GmAD8ic4VvnJ4proBoaUQwyBRtK0g6jGFbKl5lJG1V0QEVnd3btvvYTAplTOh0tnIZJb6EW0Fy/ZWzKGDDFb2qj2pxinMapaMhHxYU2avWQJcvbs5tjmAJgHdK7vddolIFZwiKA7BiaAuHA2oxDvYUY4qrj33KKQT2xvjl5YkaPIrwQzPd+s6+/O7c0dPiNTy763fN2pChwEnHGZpr8Z+0OynbeyMyzsyrxQfPJagKQgvFpQjHQAbWsyRMzqAqyfTVd46i92ZX5pWR3/a+K/0MDwsxXe75zenzd9P6RRzXlYgIVzOYzGzPzIKs8ihEzywgUqwoSQU8LyLCcMrVRo9MQ88UIKSB9XNQtObI2avUt0nV5DlQ9+kx/v3r4hQYZwM0F4Ou9jibJjOz2SWJ7jHDANq6fFLimnLlaEsEShSwKj8+DLiCAl6iIaPeBcARONM472MamRqs7Tbeqh99ZEN8RMmuOz/fEIKt7n7xGpThZwaA1jAWAopvbCWxw/oXBGW1EZxVKVA72HnSoV7EcmuW+E19m9l05xdgDLlrxxToH4vOtOaFntcP3pcbOBKPAL3emPbV2Vk5Vr3mDdbQRnVVwiMEpKafclopOcKxOFDLjU6IY0zWO2iewnIa0OM0cz+6b9IarHb77XW/Q2sYgOcXxlU7ZS4FG5Uy/tRFc7JIl9nXeHgaAGFrxZAcZdzMoxluv4jjb32Tt5+rhZ4HfV2uHb9+9ef/+zavfgJCX3ULQcc7UHhUnwFpS+srT59pBUMNLyloKHq4EL8oVMrByL7ZR2R6B71mW5oiHVzsNsQT7ooqr9hayruDaSIcyFhscLz0DQk7odCPIKgychAN6oPaojDQMzwQwp2iOcFJTbKPu/YDgvfOvzMD2vzTmDTbssdzRSQoriQNiqTP1CpIdhE/KjzP89HnIqj4swYllHlZgShDyxJN7HchhdFmHCC+0UauvwAFVmrIBKoZdZQ77YMbp4kM4G1NYrQMT2GE6stkstjrM6jJqJ2Ge+KlEsNJfPC+yamLASHyC3ceY7pSK55ZqUeGsIrRRq1+bFTQ8GT7vd+fQV1i1Dw0HD3RwCqvAWFkxuEl7Jfu+jF7afn6yqt5DUhZcR8neTgZ9b2PKiiRt1EMsY0hzaAxuM5LH8T9H/+WUrs8jhZ+Mmlh5YmMeZmf2asFHXQNAWwr4Q/AJNg+4Ph8FGvSRYoht1L0PjeKMFKjG6P3C0TMosuFD8D72IqWP+IwDaWJ2YOv1kxUBWgtZtUdoVd4d9wnjefoQLyYR26hQKITqvWRAqPrVr0iqIuJfC3fw5HPduz7FW6ucJJef+G1IOI6jvDurGR+0HFnVNTyU4vin/PTJeJ6e5jim/S01BFkEEw2MEQxmPNIeEP347fhPvxo01Bckx+r87BiIcsAIoHNt5kZWJf67IEYxMaQZpm4bOOaSOn2i9YIS11s0FyrxSLfJ/q+dOcPTtXcTbw8HOrZT/AxSiyxAHYzz90oqVmWiWMJPxShmpFHIpbNqjkJEKBVY4hOc/S1uC21UKLIyvib253lyVPHkw9MMkn/SFe3a2190tIwvL9s/sy+IjanPT1Yt9g9G1yU8z1Zy6PIE3dbwPg4pxcCNJemEzWNnLPW+KmejXvXlq++0iRAlt589N4OeEet2z83FLKSkXSy7JpcnYHNK5oipxgHHnEUIXsOJ1Rk5NKP3jWA66lX3sXGGHf+il502t9uQYnjn6wBo1c4q/lnvlOkEBs7TM8qBNY4fQo3jX3RA4axhjlnHf97ubIvZdZUGzf1LamJkAYpBA69lbMYOYp+g3VN0d+puR6PCojipWUOKIXVA6KBnHP+psc01Ofo7Xkc4R13qgj92mlM1tOgfTKUfD1AOThoXc2dDl6J7+QxrHOKkJs1ESScU97DBU5GWP1j4qmx/FuYbXkLJn9lX1PIdJwinKkQRjtwfGM9OVnnzkglG4bzYRISaTTkO+5+3pdweMHClkOLPXrkVyU+w5A+te3sIOWFxqsYYQUXIP9AeGebnktVlE0X8RyAY7RNvHHglbVTcJTu/xAyIs1epgSE+YmyDihtAemsYVKWbBghSSL+1eqK41hOHZtTit2cyRyzUOF5DYNkWJzhZbEMHJCZNhA9EPWEsFhgrDWEbWJGaHjiPbmhg+uHBZx0AMWFEZ8Ekh8GgjVqslCRWlLBXCYkH/+NUhAhPSaUT1EemasDgZngyBZCCE+W3G0BWp86sav0ZmSC2USuyAIbsVTb6QfGL/UT4Rzwcuh320C0o+tanD00lI/ePBuixBbNpgHC0QjKpST5VBkLCXr8IZsQcDWP3kpYRsH4IUmdgFAZA0Zy+ZBAnTvAA9CMLZvlFMRT4hTdCMRULGSywSYhowl4lyePXUJ5cUzgMTyOISIXToDhd7UicNI9ikpKrrP6aKbkmw0L55UGYNcxso0IVcFecpx+Ha4ntMX6xDVYpuKYa+izH65OmcoAcfrJumTzo6c6stvmkphDh4Svt/pTgM5u9Mn4KZTHRKslnOYxHoD4aZTzTYb5MieIjfWu+Jw4nk5qyryQhC2ztf5vFXnlr6IuAz1EJKcaJoU4AEo5NEUBr4WIPPdTL/o/Oqwo2UT2qV4q7UnwoeRSnyxPTqwRCWrl3tYNtgrapzt5BjKyCJp2N2kEaDZOLNgFumOEjoRHU5GIOSDSw1/KpNKy44TlPQ50HENaDvN7jyx05OmkcNZMUm9leqEj9c3KwWeaAjmaQD+6zvKE11kcKEFUU++ZSFcVlyCoMC40jOwqFBYJNQhLmDf2ySTUOyZyCK4vv3MCcnd+CA6oeYiCXHHwhSOuXylgfHtCzACk4ZOa1eU0aNZ09QDUO8+kBKhLyI6tmR07IYVbDfyXFp/q2LC0bEflwZJd74FRRMfDjiT6GbAdhc94J7x/f1VAEgB5INQwccBdp996H3fCtvBOIEazii+yMMwmxdUZ1a37LFNfHkgGkYQ3kejPGgOk34SjethCuGYf/NeOSF3K3kgZi9SuWMsTCEeXjjn9mpfSxbiSJIh86kfbmVwk++QGEVZmicKqgeuT/mNEoxfqiI6sB7WPvviJ6M/JM4XGsLgQI/mO9m0PrOS+yajLK6IgVner7V7LwDgsGfYqNL2KGSDtLUkSksojjjsy0PtYgFE8mRjjdMcxhuiMnsqpgYtZ4I4DxclafHf2MzEHTnR2Sim0NT/8U3ZaeUUH/iHMKGYAoDfI7dlrT1eaDciarKvahGnOvTMrCAPFalkG/OPyG1Q9hKIQPdfjdaX1gjHTq3B1GeWgFpfnpw4r2tPseTTVMylyXuHEi2Q7MXMTRqhcJVZdUP6gsElzDxEZaHwpYmfmpAg4nB0FUeKxvzY1qEEDuwjuBxtsB4lFZOL9KB4CklUds6ifHdTMA4aR2tu2Do6VsV23CGHAaoOVNDAqw0hs8ZpEPzs28A0EfrQPT69nXckRwKJRFto0BaEvFVq9sele6wBHLy2c/YZ+I1Q+iGE7zMhIB4oMcE4B0Gwvj3vlGjAEnZLUeyKeipGv/87b0iiVi93RFeWZxihG2LVEfrNJlxl/Q6orefR5nNeiU2viAjyAUJIIuCEyC1LXSlB69EPfJp0ZDUqPHS5UcScU2qcuWe5qojxXj4ac019COA4f57UKiXMJPUbAWCEYGktzIKo0DL7z6j/bJ4ffG1b6sPIQcTPyQcY1Dk+mDqXT6sjw6qlG6NfI4L6YIAD2Maqh4DrIoYZ6SDfSmfCXlH9hblKTjlBrVB4om0wdbq8HNJIxxC+utfOJQFYJPnmyeTsZ/m3P96BgH/0p6hRlG8oovOiCsTgd+W5PqYxAekwEhbDsHxXizLlgy7+t48vLzQoRqb+T4MGILFENIjsZtVE2uj9mnw0/JVT9ULCudrX6oV7aD8iKr45M928G7BaHs8Iv8Crzajx1pG/XIR4pxhndYSfRR4QSmE35MnJCCd4G6Fzmdm0eqmSarymKyqqTJKn0CkEF6V2pl98P8SfAjOT7oicWDL5M2Kuoq04feQJbYGN28EF7qGeXM8c0LJCy6eUFZR2dV4ddtNj7PKCHOXZjqSNqodLmAN7Jm6qN34D6TEh1a5dej0u2WOdzdQbsvr8bhHV03vu3Ji/TzFt5DIZYXiZs5bmuOPlbsw31OHtytYsP1qMjDtDx8a963AUcHfIBq98sS0Sy7U9gGkmTi0HOESU1tnj4Ux4LrkabF6SuoNoeLUeOQ6WBd3NCFpDuh2Aycv4G8itgygtth8N1A8RyAFEOlllzgn3SdJrzehHl0IfhsAkCajjPloKJT8X7KkuVZa+/HjqQ8VHuDDgjuk5qrj9Ghe6vrmGoU68dxfgDl6KTRKcJNAmhmlcavo+U3EcuBxPIHnY2GGscifTCCJgOk9WJbHevzWLLKkyvJDYI8q5AIknsU04J2PyAz2/Zf1ZbcRCyJlryk5fA7DJLVB9FifZS7Mj8Z5XinsZJVbtHViTJBQla3HnUT59bYVNnzpZlyp7I7q+czvQ6/74gOaO9fnOPw8LrcBfpoWsf3mmHY9MoHYOwpfR5BVrfW9OIR0+oFTfLV35dKiarvdiUOCNuoTvncWEofLe7cDQbdVowBPqMPOdpNGAMeK8Rnyh2HpURL+Oq932VxkOxrQjHU5fRRTXgThi3V56HBZ33vWTUtfkd7ZfdqcUp0VBYzoMPPUDwLT6UqzLnwKWeAFpDV5W8kFxSykndA7oSL6Gv1jXgXJ2+jltur6aMu967nFW8kz+dOeyakr41XC9GZCwefixX353xfvfdLcEB8upxRjNz0Gb+ADYTxC9hAkN1pnwh5ktXpvEO1OmHdIfr6da6vFoyQT5eXuoaanz7PTlZFX2aMLtFXs5To00r0NWmj3pu56rOyb13ja0TpXYmmOvbV/y6ZEsHiAx7uhZHvA8sFoAflC7MVMvo3WM5nKdHS9HXcRrXy12eTdhD/SdTF24GLFe/9zGGYLD50GrV5Yq5Dn+cmqzKn2OFVosbVUvSVt1GD2FyHPg8jq5IXiWeE5d+gLhPscUpUf7eYvnKK4Z7b69Jn/hvUM8JS7zicFha841B8p6BqxmdEthdW9McjnP6ttTZ9tma945B2IjdVFMjO1kA1Et8BlUD4mX3hEX1tfJtPX/n9bzCpuQ59NoWsCtHH0OKPdCS6Mr+iX8M2qgOvBFqnPs9OVsUnpmktfn3F7u/Z9DVpo7bgnZ5PvYOWAygvsiqQQ00bJSlR8HqGr64eeUQxrPXro6xEVlNSHm8LFwQkh9A4I1/tvZdXiZI2amw+hT6L3xaurpWspgWb/5tzugOu2Pglo6/URi16/SfS5+nGgJfOXLX7S/LV2744g09tVEYxlCfTJ2OqimCqT0E1phTSogMys6JQ0eej4oxi6E+nz2YBBL5D0/rXJVlKVPuK11MFxbb5hA9sLQCpD1cIk8eY3xKz7b0/TCCqvnxVxxu33J7xhPosBmjtTlpCDjWTuq8O20Sfjvb39vb2j179oovZvSFOhj2pPnPJqs7WmKbpuDi3WyAUFgoFUUh+kcLoK+XVDf/bly9fPvtw1TjMO59FhWfQZyYKCr68Mgekt1bdidFt0iuubO8kN9Y77llOT35lfeQ78SmpxpSgaT2vNLkoEgZCivXyAV5m/hz6PDdZlSkUd8tw42qCT718OTJycq5/IlkVBMWyRme+65fq9XrJ97zuhZXbe+L/OLI6QyHTMC8Oht1u97Z1EVumNDw/pT4SgLhC6kMVyrR61cwTs9I6JC/6ySiEf+aOlCjp1rPrk71h9KnJ6mJyuGn6PD0XSz95ZRnT2Diq8azsOS/f8aeS1b9iB/0HUBagtTvFZ6EI+ZHVRRTw8YK+QFjPb81JH135W598Tvo8K9VYZ6HrTyCrf4Wzf142/wfkU3IuRsLM0X91Se4z1ZsnHTIKqWmF1DRAm6KP+n/ymWbmEZxHuQAAAABJRU5ErkJggg==;" vertex="1" parent="V-jbAyR8-M4dBIKKFTTF-1">
          <mxGeometry x="-638" y="54.25" width="127.55" height="77.5" as="geometry" />
        </mxCell>
        <mxCell id="4lUBqZHKsbTSKRKANzik-3" value="Productos" style="html=1;shadow=0;dashed=0;shape=mxgraph.bootstrap.rrect;rSize=5;strokeColor=none;strokeWidth=1;fillColor=#6C767D;fontColor=#FFFFFF;whiteSpace=wrap;align=left;verticalAlign=middle;spacingLeft=10;fontStyle=1;fontSize=18;" vertex="1" parent="V-jbAyR8-M4dBIKKFTTF-1">
          <mxGeometry x="-431" y="78.75" width="110" height="40" as="geometry" />
        </mxCell>
        <mxCell id="4lUBqZHKsbTSKRKANzik-4" value="Quienes Somos?" style="html=1;shadow=0;dashed=0;shape=mxgraph.bootstrap.rrect;rSize=5;strokeColor=none;strokeWidth=1;fillColor=#6C767D;fontColor=#FFFFFF;whiteSpace=wrap;align=left;verticalAlign=middle;spacingLeft=10;fontStyle=1;fontSize=18;" vertex="1" parent="V-jbAyR8-M4dBIKKFTTF-1">
          <mxGeometry x="69" y="76.75" width="170" height="40" as="geometry" />
        </mxCell>
        <mxCell id="4lUBqZHKsbTSKRKANzik-5" value="Envios" style="html=1;shadow=0;dashed=0;shape=mxgraph.bootstrap.rrect;rSize=5;strokeColor=none;strokeWidth=1;fillColor=#6C767D;fontColor=#FFFFFF;whiteSpace=wrap;align=left;verticalAlign=middle;spacingLeft=10;fontStyle=1;fontSize=18;" vertex="1" parent="V-jbAyR8-M4dBIKKFTTF-1">
          <mxGeometry x="-71" y="80" width="81" height="40" as="geometry" />
        </mxCell>
        <mxCell id="4lUBqZHKsbTSKRKANzik-6" value="Promociones" style="html=1;shadow=0;dashed=0;shape=mxgraph.bootstrap.rrect;rSize=5;strokeColor=none;strokeWidth=1;fillColor=#6C767D;fontColor=#FFFFFF;whiteSpace=wrap;align=left;verticalAlign=middle;spacingLeft=10;fontStyle=1;fontSize=18;" vertex="1" parent="V-jbAyR8-M4dBIKKFTTF-1">
          <mxGeometry x="-271" y="80" width="140" height="40" as="geometry" />
        </mxCell>
        <mxCell id="4lUBqZHKsbTSKRKANzik-7" value="&lt;font style=&quot;font-size: 15px&quot;&gt;Login&lt;/font&gt;" style="html=1;shadow=0;dashed=0;shape=mxgraph.bootstrap.rrect;rSize=5;strokeColor=none;strokeWidth=1;fillColor=#6C767D;fontColor=#FFFFFF;whiteSpace=wrap;align=left;verticalAlign=middle;spacingLeft=10;fontStyle=1;fontSize=18;" vertex="1" parent="V-jbAyR8-M4dBIKKFTTF-1">
          <mxGeometry x="303.18" y="60" width="61.63" height="30" as="geometry" />
        </mxCell>
        <mxCell id="4lUBqZHKsbTSKRKANzik-8" value="&lt;font style=&quot;font-size: 15px&quot;&gt;Registrarse&lt;/font&gt;" style="html=1;shadow=0;dashed=0;shape=mxgraph.bootstrap.rrect;rSize=5;strokeColor=none;strokeWidth=1;fillColor=#6C767D;fontColor=#FFFFFF;whiteSpace=wrap;align=left;verticalAlign=middle;spacingLeft=10;fontStyle=1;fontSize=18;" vertex="1" parent="V-jbAyR8-M4dBIKKFTTF-1">
          <mxGeometry x="282" y="100" width="108" height="30" as="geometry" />
        </mxCell>
        <mxCell id="8MLwgE1mx88ZhGkM00MM-0" value="" style="rounded=1;whiteSpace=wrap;html=1;strokeWidth=2;fillWeight=4;hachureGap=8;hachureAngle=45;fillColor=#1ba1e2;sketch=1;labelBackgroundColor=#ffffff;arcSize=0;" vertex="1" parent="V-jbAyR8-M4dBIKKFTTF-1">
          <mxGeometry x="-669" y="500" width="1200" height="300" as="geometry" />
        </mxCell>
        <mxCell id="a63qh-l829hwgs__Zu5n-0" value="Novedades" style="text;html=1;strokeColor=none;fillColor=none;align=center;verticalAlign=middle;whiteSpace=wrap;rounded=0;fontSize=40;" vertex="1" parent="V-jbAyR8-M4dBIKKFTTF-1">
          <mxGeometry x="-298.75" y="240" width="507.5" height="20" as="geometry" />
        </mxCell>
        <mxCell id="LLYgzXzwE-lLNmsp-rMH-0" value="img" style="text;html=1;strokeColor=none;fillColor=none;align=center;verticalAlign=middle;whiteSpace=wrap;rounded=0;fontSize=22;" vertex="1" parent="V-jbAyR8-M4dBIKKFTTF-1">
          <mxGeometry x="-95" y="630" width="40" height="20" as="geometry" />
        </mxCell>
        <mxCell id="FHFpfof7eyRLTA5OTUCT-0" value="" style="triangle;whiteSpace=wrap;html=1;fontSize=22;rotation=-180;" vertex="1" parent="V-jbAyR8-M4dBIKKFTTF-1">
          <mxGeometry x="-644" y="640" width="30" height="30" as="geometry" />
        </mxCell>
        <mxCell id="FHFpfof7eyRLTA5OTUCT-1" value="" style="triangle;whiteSpace=wrap;html=1;fontSize=22;" vertex="1" parent="V-jbAyR8-M4dBIKKFTTF-1">
          <mxGeometry x="440" y="645" width="30" height="30" as="geometry" />
        </mxCell>
        <mxCell id="Hdn2YL2RjLVU431OJHQW-0" value="Los mejores produtos" style="text;html=1;strokeColor=none;fillColor=none;align=center;verticalAlign=middle;whiteSpace=wrap;rounded=0;fontSize=40;" vertex="1" parent="V-jbAyR8-M4dBIKKFTTF-1">
          <mxGeometry x="-323.94" y="840" width="507.5" height="20" as="geometry" />
        </mxCell>
        <mxCell id="Hdn2YL2RjLVU431OJHQW-1" value="" style="rounded=1;whiteSpace=wrap;html=1;strokeWidth=2;fillWeight=4;hachureGap=8;hachureAngle=45;sketch=1;labelBackgroundColor=#ffffff;fillColor=#FF0000;" vertex="1" parent="V-jbAyR8-M4dBIKKFTTF-1">
          <mxGeometry x="50.81" y="1002.5699999999999" width="204" height="248.43" as="geometry" />
        </mxCell>
        <mxCell id="Hdn2YL2RjLVU431OJHQW-2" value="" style="rounded=1;whiteSpace=wrap;html=1;strokeWidth=2;fillWeight=4;hachureGap=8;hachureAngle=45;sketch=1;labelBackgroundColor=#ffffff;fillColor=#FF0000;" vertex="1" parent="V-jbAyR8-M4dBIKKFTTF-1">
          <mxGeometry x="268.81" y="1001" width="206" height="250" as="geometry" />
        </mxCell>
        <mxCell id="Hdn2YL2RjLVU431OJHQW-3" value="" style="rounded=1;whiteSpace=wrap;html=1;strokeWidth=2;fillWeight=4;hachureGap=8;hachureAngle=45;sketch=1;labelBackgroundColor=#ffffff;fillColor=#FF0000;" vertex="1" parent="V-jbAyR8-M4dBIKKFTTF-1">
          <mxGeometry x="-610.19" y="1001" width="206" height="250" as="geometry" />
        </mxCell>
        <mxCell id="Hdn2YL2RjLVU431OJHQW-4" value="" style="rounded=1;whiteSpace=wrap;html=1;strokeWidth=2;fillWeight=4;hachureGap=8;hachureAngle=45;sketch=1;labelBackgroundColor=#ffffff;fillColor=#FF0000;" vertex="1" parent="V-jbAyR8-M4dBIKKFTTF-1">
          <mxGeometry x="-388.19" y="1004.13" width="203" height="246.87" as="geometry" />
        </mxCell>
        <mxCell id="Hdn2YL2RjLVU431OJHQW-5" value="" style="rounded=1;whiteSpace=wrap;html=1;strokeWidth=2;fillWeight=4;hachureGap=8;hachureAngle=45;sketch=1;labelBackgroundColor=#ffffff;fillColor=#FF0000;" vertex="1" parent="V-jbAyR8-M4dBIKKFTTF-1">
          <mxGeometry x="-168.19" y="1004.13" width="203" height="246.87" as="geometry" />
        </mxCell>
        <mxCell id="Hdn2YL2RjLVU431OJHQW-6" value="" style="triangle;whiteSpace=wrap;html=1;fontSize=22;rotation=-180;" vertex="1" parent="V-jbAyR8-M4dBIKKFTTF-1">
          <mxGeometry x="-610.19" y="1121" width="30" height="30" as="geometry" />
        </mxCell>
        <mxCell id="Hdn2YL2RjLVU431OJHQW-7" value="" style="triangle;whiteSpace=wrap;html=1;fontSize=22;" vertex="1" parent="V-jbAyR8-M4dBIKKFTTF-1">
          <mxGeometry x="445.18" y="1131" width="30" height="30" as="geometry" />
        </mxCell>
        <mxCell id="Hdn2YL2RjLVU431OJHQW-8" value="&lt;font style=&quot;font-size: 20px&quot;&gt;Populares&lt;/font&gt;" style="html=1;shadow=0;dashed=0;shape=mxgraph.bootstrap.rrect;rSize=5;strokeColor=none;strokeWidth=1;fillColor=#FFBC26;fontColor=#FFFFFF;whiteSpace=wrap;align=center;verticalAlign=middle;spacingLeft=0;fontStyle=0;fontSize=16;spacing=5;" vertex="1" parent="V-jbAyR8-M4dBIKKFTTF-1">
          <mxGeometry x="-445.94" y="921" width="100" height="40" as="geometry" />
        </mxCell>
        <mxCell id="Hdn2YL2RjLVU431OJHQW-9" value="&lt;span style=&quot;font-size: 20px&quot;&gt;Especiales&lt;/span&gt;" style="html=1;shadow=0;dashed=0;shape=mxgraph.bootstrap.rrect;rSize=5;strokeColor=none;strokeWidth=1;fillColor=#FFBC26;fontColor=#FFFFFF;whiteSpace=wrap;align=center;verticalAlign=middle;spacingLeft=0;fontStyle=0;fontSize=16;spacing=5;" vertex="1" parent="V-jbAyR8-M4dBIKKFTTF-1">
          <mxGeometry x="153.81" y="921" width="180" height="40" as="geometry" />
        </mxCell>
        <mxCell id="Hdn2YL2RjLVU431OJHQW-10" value="&lt;font style=&quot;font-size: 20px&quot;&gt;Mas Vendidos&lt;/font&gt;" style="html=1;shadow=0;dashed=0;shape=mxgraph.bootstrap.rrect;rSize=5;strokeColor=none;strokeWidth=1;fillColor=#FFBC26;fontColor=#FFFFFF;whiteSpace=wrap;align=center;verticalAlign=middle;spacingLeft=0;fontStyle=0;fontSize=16;spacing=5;" vertex="1" parent="V-jbAyR8-M4dBIKKFTTF-1">
          <mxGeometry x="-69.69" y="921" width="180" height="40" as="geometry" />
        </mxCell>
        <mxCell id="Hdn2YL2RjLVU431OJHQW-11" value="&lt;font style=&quot;font-size: 20px&quot;&gt;Nuevos Productos&lt;/font&gt;" style="html=1;shadow=0;dashed=0;shape=mxgraph.bootstrap.rrect;rSize=5;strokeColor=none;strokeWidth=1;fillColor=#FFBC26;fontColor=#FFFFFF;whiteSpace=wrap;align=center;verticalAlign=middle;spacingLeft=0;fontStyle=0;fontSize=16;spacing=5;" vertex="1" parent="V-jbAyR8-M4dBIKKFTTF-1">
          <mxGeometry x="-297.19" y="921" width="180" height="40" as="geometry" />
        </mxCell>
        <mxCell id="gJcq_ZGtwR82ENiOhJK3-0" value="&lt;font style=&quot;font-size: 30px&quot;&gt;Sobre nosotros&lt;/font&gt;" style="text;html=1;strokeColor=none;fillColor=none;align=center;verticalAlign=middle;whiteSpace=wrap;rounded=0;fontSize=40;" vertex="1" parent="V-jbAyR8-M4dBIKKFTTF-1">
          <mxGeometry x="100.00000000000006" y="1700" width="507.5" height="20" as="geometry" />
        </mxCell>
        <mxCell id="gJcq_ZGtwR82ENiOhJK3-1" value="&lt;font style=&quot;font-size: 30px&quot;&gt;Newsletter&lt;/font&gt;" style="text;html=1;strokeColor=none;fillColor=none;align=center;verticalAlign=middle;whiteSpace=wrap;rounded=0;fontSize=40;" vertex="1" parent="V-jbAyR8-M4dBIKKFTTF-1">
          <mxGeometry x="-338.5" y="1710" width="507.5" height="20" as="geometry" />
        </mxCell>
        <mxCell id="gJcq_ZGtwR82ENiOhJK3-2" value="&lt;font style=&quot;font-size: 30px&quot;&gt;Contactanos&lt;/font&gt;" style="text;html=1;strokeColor=none;fillColor=none;align=center;verticalAlign=middle;whiteSpace=wrap;rounded=0;fontSize=40;" vertex="1" parent="V-jbAyR8-M4dBIKKFTTF-1">
          <mxGeometry x="-730" y="1710" width="507.5" height="20" as="geometry" />
        </mxCell>
        <mxCell id="gJcq_ZGtwR82ENiOhJK3-3" value="" style="group" vertex="1" connectable="0" parent="V-jbAyR8-M4dBIKKFTTF-1">
          <mxGeometry x="-170" y="1764" width="210" height="40" as="geometry" />
        </mxCell>
        <mxCell id="gJcq_ZGtwR82ENiOhJK3-4" value="Email" style="fillColor=none;strokeColor=none;align=left;fontSize=16;fontColor=#212529;" vertex="1" parent="gJcq_ZGtwR82ENiOhJK3-3">
          <mxGeometry x="10" width="200" height="40" as="geometry" />
        </mxCell>
        <mxCell id="gJcq_ZGtwR82ENiOhJK3-5" value="" style="html=1;shadow=0;dashed=0;shape=mxgraph.bootstrap.rrect;rSize=5;fillColor=none;strokeColor=#999999;align=left;spacing=15;fontSize=16;fontColor=#6C767D;" vertex="1" parent="gJcq_ZGtwR82ENiOhJK3-3">
          <mxGeometry width="200" height="40" as="geometry" />
        </mxCell>
        <mxCell id="gJcq_ZGtwR82ENiOhJK3-6" value="&lt;font style=&quot;font-size: 30px&quot;&gt;Donde nos encontramos&lt;/font&gt;" style="text;html=1;strokeColor=none;fillColor=none;align=center;verticalAlign=middle;whiteSpace=wrap;rounded=0;fontSize=40;" vertex="1" parent="V-jbAyR8-M4dBIKKFTTF-1">
          <mxGeometry x="-313.75" y="1330" width="507.5" height="20" as="geometry" />
        </mxCell>
        <mxCell id="gJcq_ZGtwR82ENiOhJK3-7" value="" style="group" vertex="1" connectable="0" parent="V-jbAyR8-M4dBIKKFTTF-1">
          <mxGeometry x="-669" y="1370" width="1290" height="300" as="geometry" />
        </mxCell>
        <mxCell id="gJcq_ZGtwR82ENiOhJK3-8" value="" style="rounded=1;whiteSpace=wrap;html=1;strokeWidth=2;fillWeight=4;hachureGap=8;hachureAngle=45;fillColor=#1ba1e2;sketch=1;labelBackgroundColor=#ffffff;arcSize=0;" vertex="1" parent="gJcq_ZGtwR82ENiOhJK3-7">
          <mxGeometry width="1195.4932019704431" height="300" as="geometry" />
        </mxCell>
        <mxCell id="gJcq_ZGtwR82ENiOhJK3-9" value="&lt;font style=&quot;font-size: 30px&quot;&gt;Google map&lt;/font&gt;" style="text;html=1;strokeColor=none;fillColor=none;align=center;verticalAlign=middle;whiteSpace=wrap;rounded=0;fontSize=40;" vertex="1" parent="gJcq_ZGtwR82ENiOhJK3-7">
          <mxGeometry x="1.6254977659457657e-13" y="140" width="1289.9999999999998" height="20" as="geometry" />
        </mxCell>
        <mxCell id="gJcq_ZGtwR82ENiOhJK3-10" value="" style="rounded=1;whiteSpace=wrap;html=1;strokeWidth=2;fillWeight=4;hachureGap=8;hachureAngle=45;sketch=1;labelBackgroundColor=#ffffff;arcSize=0;fontColor=#FFFF33;fillColor=#E6E6E6;" vertex="1" parent="V-jbAyR8-M4dBIKKFTTF-1">
          <mxGeometry x="-670.19" y="1830" width="1200" height="90" as="geometry" />
        </mxCell>
        <mxCell id="gJcq_ZGtwR82ENiOhJK3-11" value="&lt;font style=&quot;font-size: 30px&quot;&gt;Copyright&lt;/font&gt;" style="text;html=1;strokeColor=none;fillColor=none;align=center;verticalAlign=middle;whiteSpace=wrap;rounded=0;fontSize=40;" vertex="1" parent="V-jbAyR8-M4dBIKKFTTF-1">
          <mxGeometry x="-369.99999999999994" y="1865" width="507.5" height="20" as="geometry" />
        </mxCell>
      </root>
    </mxGraphModel>
  </diagram>
  <diagram id="L94S5Pws6cRvEanTJl3l" name="Page-3">
    <mxGraphModel dx="3197" dy="2439" grid="1" gridSize="10" guides="1" tooltips="1" connect="1" arrows="1" fold="1" page="1" pageScale="1" pageWidth="827" pageHeight="1169" math="0" shadow="0">
      <root>
        <mxCell id="-IeSadfAtOniTE9cs8pw-0" />
        <mxCell id="-IeSadfAtOniTE9cs8pw-1" parent="-IeSadfAtOniTE9cs8pw-0" />
        <mxCell id="Wdn8A_iho1azzuehMDy3-0" value="" style="rounded=0;whiteSpace=wrap;html=1;direction=west;" parent="-IeSadfAtOniTE9cs8pw-1" vertex="1">
          <mxGeometry x="-670" y="150" width="1200" height="1130" as="geometry" />
        </mxCell>
        <mxCell id="Wdn8A_iho1azzuehMDy3-34" value="" style="line;strokeWidth=2;html=1;" parent="-IeSadfAtOniTE9cs8pw-1" vertex="1">
          <mxGeometry x="-670" y="150" width="1200" height="10" as="geometry" />
        </mxCell>
        <mxCell id="RJlw6gQgBoNPEWVoEPUp-0" value="" style="rounded=0;whiteSpace=wrap;html=1;fontSize=22;" parent="-IeSadfAtOniTE9cs8pw-1" vertex="1">
          <mxGeometry x="-670" y="150" width="1200" height="300" as="geometry" />
        </mxCell>
        <mxCell id="RJlw6gQgBoNPEWVoEPUp-9" value="" style="rounded=1;whiteSpace=wrap;html=1;fontSize=22;" parent="-IeSadfAtOniTE9cs8pw-1" vertex="1">
          <mxGeometry x="510" y="460" width="11" height="60" as="geometry" />
        </mxCell>
        <mxCell id="DjL4e257nrY8yJFLDS_f-6" value="" style="rounded=1;whiteSpace=wrap;html=1;strokeWidth=2;fillWeight=4;hachureGap=8;hachureAngle=45;fillColor=#1ba1e2;sketch=1;labelBackgroundColor=#ffffff;arcSize=0;" parent="-IeSadfAtOniTE9cs8pw-1" vertex="1">
          <mxGeometry x="-670" y="150" width="1200" height="300" as="geometry" />
        </mxCell>
        <mxCell id="A557JMJRXgYQ-JVMPkEr-2" value="" style="group" parent="-IeSadfAtOniTE9cs8pw-1" vertex="1" connectable="0">
          <mxGeometry x="-330" y="160" width="610" height="50" as="geometry" />
        </mxCell>
        <mxCell id="A557JMJRXgYQ-JVMPkEr-0" value="" style="rounded=1;whiteSpace=wrap;html=1;arcSize=50;" parent="A557JMJRXgYQ-JVMPkEr-2" vertex="1">
          <mxGeometry x="-60" width="610" height="40" as="geometry" />
        </mxCell>
        <mxCell id="-HMzBLESTVUFNxKpy5Fw-0" value="&lt;font style=&quot;font-size: 25px&quot;&gt;Que estas buscando?&lt;/font&gt;" style="text;html=1;strokeColor=none;fillColor=none;align=center;verticalAlign=middle;whiteSpace=wrap;rounded=0;" vertex="1" parent="A557JMJRXgYQ-JVMPkEr-2">
          <mxGeometry x="123" y="10" width="270" height="20" as="geometry" />
        </mxCell>
        <mxCell id="RJlw6gQgBoNPEWVoEPUp-1" value="img" style="text;html=1;strokeColor=none;fillColor=none;align=center;verticalAlign=middle;whiteSpace=wrap;rounded=0;fontSize=22;" parent="-IeSadfAtOniTE9cs8pw-1" vertex="1">
          <mxGeometry x="-95" y="290" width="40" height="20" as="geometry" />
        </mxCell>
        <mxCell id="RJlw6gQgBoNPEWVoEPUp-2" value="" style="ellipse;whiteSpace=wrap;html=1;fontSize=22;" parent="-IeSadfAtOniTE9cs8pw-1" vertex="1">
          <mxGeometry x="-100" y="430" width="10" height="10" as="geometry" />
        </mxCell>
        <mxCell id="RJlw6gQgBoNPEWVoEPUp-3" value="" style="ellipse;whiteSpace=wrap;html=1;fontSize=22;" parent="-IeSadfAtOniTE9cs8pw-1" vertex="1">
          <mxGeometry x="-80" y="430" width="10" height="10" as="geometry" />
        </mxCell>
        <mxCell id="RJlw6gQgBoNPEWVoEPUp-4" value="" style="ellipse;whiteSpace=wrap;html=1;fontSize=22;" parent="-IeSadfAtOniTE9cs8pw-1" vertex="1">
          <mxGeometry x="-59.68" y="430" width="10" height="10" as="geometry" />
        </mxCell>
        <mxCell id="RJlw6gQgBoNPEWVoEPUp-8" value="" style="triangle;whiteSpace=wrap;html=1;fontSize=22;rotation=-180;" parent="-IeSadfAtOniTE9cs8pw-1" vertex="1">
          <mxGeometry x="-630" y="285" width="30" height="30" as="geometry" />
        </mxCell>
        <mxCell id="RJlw6gQgBoNPEWVoEPUp-7" value="" style="triangle;whiteSpace=wrap;html=1;fontSize=22;" parent="-IeSadfAtOniTE9cs8pw-1" vertex="1">
          <mxGeometry x="454" y="290" width="30" height="30" as="geometry" />
        </mxCell>
        <mxCell id="c5ar1Q9Tx8akoon7-oNe-0" value="" style="rounded=1;whiteSpace=wrap;html=1;strokeWidth=2;fillWeight=4;hachureGap=8;hachureAngle=45;sketch=1;labelBackgroundColor=#ffffff;arcSize=0;fontColor=#FFFF33;fillColor=#E6E6E6;" parent="-IeSadfAtOniTE9cs8pw-1" vertex="1">
          <mxGeometry x="-670" y="-97.5" width="1200" height="247.5" as="geometry" />
        </mxCell>
        <mxCell id="Ezf_32JMDT0Gf3wFJjgS-0" value="" style="shape=image;verticalLabelPosition=bottom;labelBackgroundColor=#ffffff;verticalAlign=top;aspect=fixed;imageAspect=0;image=data:image/png,iVBORw0KGgoAAAANSUhEUgAAASAAAACvCAMAAABqzPMLAAAA8FBMVEX+/v7t7e3////90xzs7Oz4+PhSFw/39/fz8/Pw8PD09PT7+/tSFw5CAABEAABJAABLAAA+AABQFA//1xxQEghODgD/2iRNCABHAApOEA5MDA1MBQBEAAf/1yj/1Cv/+vmnkIu0npvp3dvz6ef/1Cr4yy3uwC3CrqtjNjCGZWF3VE/MubfXycZoQDu9jiZdMCrOoCmsfiLarCvFlyecgn6gcR+Qc2/Fs7Hg09LUx8VxTEeTZBt0QhJ0UEy2iCNlMAqCURdVIBnluDVdJglWGwaJWReaah1YJyGZfHqLbWhrNw/JnBg1AAB6Shns49+EVBhnkIagAAAchElEQVR4nO1dC1vaTNNOUiHnhEMCKGqEVBGB2gNVtPZgT2rfpz7//9+8OzMbSNjlpEFpr2e/6/rezmOLw52dwz0zu1E0hS1NV2FtKSgUtlCw4UeaLREK+I8UFFSdPoEEiwQ1LZgoGCQYKJgkWPT30sLWhumjKqSDvjVRSEkUQsGWCAVlotBWWqGttEJbRlohUyIYW2mFttIAbYo+6wRI3TCAHqTPfwA9I0B/iYlpuPQtXCQVSLBRsCVCAQWFBJ0+gQSLBBUFgwQTBVMiGCioJFj0CRumj6ro/625S1H/ziefmz6K+nc617z0USQALeHM1A1zruvTRwbQfzvoP4BWAWgtTlFLO0VFdIpK2ilqWSetmqZh2BujzzgPIqT5BxG4/INEIfH2HGn+xejJ0xdDYfzFUgI9bDMtjL8Y/0n7onVwMGydjwwj+WLPp8+GZdKG0TsLXc/3S77vude3I/jefy1ZXVUhZluta7cUFPlyglJ5cMEQ+lsBWtG56sbFsTdGh6+w/PFe+1vJ6ooKRQduyLeOEwSBg39winW3xzfAMwGU8fbPRRHg9565Dm0a3w1uTm9C1ye8gvIBSwSfVh9y0igkZNXC9VSC8KNCdOchHHX3sjWKIy2K+62BRxC5Q/up9ZkIm0FWVWPooVt2T0bMcOxCoWDbSnQx8JiRFR2388T6pHbiZnAx49wtOmBd5wqAkyw7ajG37TCERtq8Yvtfz8XM+2vAIbxuawwWPQWRdgGBzQmPI7ZPWIptmpYMoKflYk9fKjWGPsMncNpKYXppfZcBVPRaLMPun3c6vVFMJvaMAD35DlLvQ7aBHPdCmdo/iFDHhVB2c3vadD223GBw0NaecAflFA4fQQ4Vs+UzDEpnmrB/EKFuHRAaZ9gBywMGPd1cmz5TZJUWdTJ52lgggYMrEZInj0tXUpvvIZ1MMzqGL+/HthQgu112ik4mv3ZCd4A0bS36LOysLpHaa8JWXJr7bAmmYWGIL9ZPYtEF0RZqFh2HUuwEKQZRCwBahz6bRjWM8zJ962Z4ITUyu+cBNqHvlctl1ysFCJPjdie9+bz0yeygDQHIbIdj71IeRrbopguR5xRLLMO+aMfxqDe85pzN/xgpfwdZNQ3DMGXagULGJfjgYgUNxxu0JZtI6XrubZsZFCxFUy4GLiRHjtfVDEiODO5M10RWOUDcwSvog7iDB8GWCGjzk5ScFOLRkBTi0RADRrvXOej02vgtxtFQAYEpZB2gAwq+Nbhr6WiCr1Y6Z/fp/6poHSSyDKHu5enpoDs8v9eoorhIH8QkUUEQkmjIAUKB+0XOzDKCvkAoLCEocWtQ9jzf88rHB+CEreQX6fjXCn10QI33hx92aROV70RfbU+DprVv6uCJ6vUwCMJ6iX16617RV1HOWiQ8BVk146FHRQv2bQLfHcbmFDmMrqHws3O1X629C3bwb/o3I3lCNF4I/E0IH+ok8Z8lR2fxIn3Sqc8GdFY1ZXTsZ9IX/7RPmdc4PHfhL1TCo+qLF9WjqwZ9V/cgkqdEqaW0/enqY8mHyP8HcTGt3awn1WX+oEPgVBOFtE4Z8Nl9x/BhCO2/8bivPrmXp0RpKwMKEoTNUqkZ8o8P3JNY+3O4mBbX0bqCkudf+x5/4B77DolCZhtoVrHxYe8Frdrb7w0wx2LT6Ym+empFl54XXHaHw7uP41J/6ab9x+wgTRvg/imFw34cx/1hUMJcuFS8SPpZ8XHIwNj+fFjlAL2oHv7LfLUDm+F2kZnZo+FFTN/BGA2LPiSPTt1p2zkDlITD3J00EQivG2sse2GBKL4jThW4QwrC1hk6IP/rGB+29l7525QGDhb5aptKj/hHLT7w8XmEN7G6wEkvJM9ZJ03r0WSVCxYJpmr1MH57t8rkS3S8OhqQx747e7o9NLDdT7UX6VX7+rmBjIv5K2Whr56gpbUHgLdTOtFk+giCwTcfWQYJ1kwhd7JqtrFx0/wYpb4E+w68Mu93NC1ugt/Y+bL3Iruq+z/dCgAZuN0Z9FUOUXSHFWyWaor6CK5j65nJqnHSBP9cz5Yw7GhYDije3EVIMSrfD18Iq/a6vkM+97q/wMyyn45JA/ul2sZzMU4gyr3UDsA8VuuFJfruTUj0iu7bqggQpES7KfoqsNeZCA3gQ/2DzQeo78Jm927p+evIMulLKPGJy2s7DlCMmgQf8NVvXPLV3iBefhPZI/i9QT3SnpisqquRVS1CHhAOyAHZStzv9doKVZxtrZW0mBnFmHZAEzPDlAj8Vfl8eYS0WzAy71zTHkhW1a1ZZNUAYmYsEgok6PMF7Q6TEreNu0YZdV2XkdWbFi/2aKNTyrArpSOZgXEzO/wxpq/m0luo7bFUot5VppSzDEGwFgk6CWsgq0YL43e5g09eaZWbOIgQjIs9SjRAV+2+no0PQ2jvVUhV1n9GS4Z7vaBAhd/xWC60uWTVHCGr8O8QDe0A8iHyOqHXwcxG6ftY4/g5wwGNzew1cl23tbyNKR2IDu6FucFUIx7Agw9vkCooF2XOV/H/uVDsseNrKAhuf96fj8+L2nuI9s3uKqG+DSHA76wVoEftINW4pceOZkFYFAPP8+pU8Ljpa0q3xAxnimLI1uF3cELujHaQfOEvLB0YGwuQce6lzCI6KUFKXO/EoxOPF3taLcwBdl8tMLAX1deQDPnDFTYQ+43QYyud5QhQvmTVbmPtp3SC0ZFFdAxnPfgRHyBzfMwUGz9mRvgxQB/Awsr3q2ygggYGjgDlTVZNtjglLaQFWyIU0kJCVtkfTTMiilGMbaiLjjAn9G919vcMFt39sT/a/iahGFNr7xfLFcPLlTYQAuSUbjUlo5yJy0oLCVkliQRLTQk6FySVwIeRVZASioFjCDbli/VBrCI51KIzYGLorj0pxZC4oNLBCny1kJjYUNtMsmr0cMt45DZYvggOyB+Z5NjY6vkBdpF33yxyQGwdwT/3zlcCyI7hAUBxegFAz9JZxTkoRg4ukWJoHXJAHT3x/AyhEe6wnd8vBYcjuqCvkG96Fyu5IBut2uvJAHp+smp1wf8GPlIMmwrOLF9MdjFw7BOqcQgU4+i94LOrX73VAVIOwM+V2w/cQfPIKgGkpX0Q56eikJDVLEAWxe8yGUV0HGIFNOJnI7CZ2iITFCjG/q9PwhZ6GED4BLxoGqCtNECJPoKAAG1NAUQfrBu4JEJBIuiiYBs6j1k0B6XdUj40UhgFhGUxVj8qF6U1jtr78pFoYkdhBdzJSj5IuYTHUj/RbImmY0o6X8iikF8epJxCjyI8Rgek9JBieAfWhA+qcRGLrL+mKUb1dfm3JCt6+Y0B1LxbKcwr+Fwc98BYI1l9mK1qZz4WyTjFqMMUT/PESLkvHV1UpT7tgNhW4a3DqX31ZQcKqNFCVCZLL1DZ1SmPNo1qGLRlEorxseng2Ko50QGrIE5x9920ge1f7cgq0y+qn6Bk5vZWsDEdyq51MrL1AfSQfMGkVnmpSxSD8kW3Z0x0UEYe1jg+iA6oMaPyegSTZeFgtVTaJk3KfW2jdpCBzy24ianeQyXpoZ4KgBTV0m3UxAG5s4j93tU2wrwi2Wh5kL9f5gVQLk6a5jAdt48UI74Bd83yxbSHHEraqOiAgorYG+M/e7cLqXi4Ur0DEwzINkY5kVXsONg6cTYSChKhQJJE0G0bxuFhyxxQkZX8pNfW8cORD+rn0jYqC1VXO5XGLGL2EugqIL1aLoQVl2ZXJ+VAhYSsjvUBsioKFmeuaUgWkdVMoignqwqMQYFKnGJQNuh2jEliBo1WaRuVOSBGPGZVPqpvsT3mf1ylw8q20GmAD8ic4VvnJ4proBoaUQwyBRtK0g6jGFbKl5lJG1V0QEVnd3btvvYTAplTOh0tnIZJb6EW0Fy/ZWzKGDDFb2qj2pxinMapaMhHxYU2avWQJcvbs5tjmAJgHdK7vddolIFZwiKA7BiaAuHA2oxDvYUY4qrj33KKQT2xvjl5YkaPIrwQzPd+s6+/O7c0dPiNTy763fN2pChwEnHGZpr8Z+0OynbeyMyzsyrxQfPJagKQgvFpQjHQAbWsyRMzqAqyfTVd46i92ZX5pWR3/a+K/0MDwsxXe75zenzd9P6RRzXlYgIVzOYzGzPzIKs8ihEzywgUqwoSQU8LyLCcMrVRo9MQ88UIKSB9XNQtObI2avUt0nV5DlQ9+kx/v3r4hQYZwM0F4Ou9jibJjOz2SWJ7jHDANq6fFLimnLlaEsEShSwKj8+DLiCAl6iIaPeBcARONM472MamRqs7Tbeqh99ZEN8RMmuOz/fEIKt7n7xGpThZwaA1jAWAopvbCWxw/oXBGW1EZxVKVA72HnSoV7EcmuW+E19m9l05xdgDLlrxxToH4vOtOaFntcP3pcbOBKPAL3emPbV2Vk5Vr3mDdbQRnVVwiMEpKafclopOcKxOFDLjU6IY0zWO2iewnIa0OM0cz+6b9IarHb77XW/Q2sYgOcXxlU7ZS4FG5Uy/tRFc7JIl9nXeHgaAGFrxZAcZdzMoxluv4jjb32Tt5+rhZ4HfV2uHb9+9ef/+zavfgJCX3ULQcc7UHhUnwFpS+srT59pBUMNLyloKHq4EL8oVMrByL7ZR2R6B71mW5oiHVzsNsQT7ooqr9hayruDaSIcyFhscLz0DQk7odCPIKgychAN6oPaojDQMzwQwp2iOcFJTbKPu/YDgvfOvzMD2vzTmDTbssdzRSQoriQNiqTP1CpIdhE/KjzP89HnIqj4swYllHlZgShDyxJN7HchhdFmHCC+0UauvwAFVmrIBKoZdZQ77YMbp4kM4G1NYrQMT2GE6stkstjrM6jJqJ2Ge+KlEsNJfPC+yamLASHyC3ceY7pSK55ZqUeGsIrRRq1+bFTQ8GT7vd+fQV1i1Dw0HD3RwCqvAWFkxuEl7Jfu+jF7afn6yqt5DUhZcR8neTgZ9b2PKiiRt1EMsY0hzaAxuM5LH8T9H/+WUrs8jhZ+Mmlh5YmMeZmf2asFHXQNAWwr4Q/AJNg+4Ph8FGvSRYoht1L0PjeKMFKjG6P3C0TMosuFD8D72IqWP+IwDaWJ2YOv1kxUBWgtZtUdoVd4d9wnjefoQLyYR26hQKITqvWRAqPrVr0iqIuJfC3fw5HPduz7FW6ucJJef+G1IOI6jvDurGR+0HFnVNTyU4vin/PTJeJ6e5jim/S01BFkEEw2MEQxmPNIeEP347fhPvxo01Bckx+r87BiIcsAIoHNt5kZWJf67IEYxMaQZpm4bOOaSOn2i9YIS11s0FyrxSLfJ/q+dOcPTtXcTbw8HOrZT/AxSiyxAHYzz90oqVmWiWMJPxShmpFHIpbNqjkJEKBVY4hOc/S1uC21UKLIyvib253lyVPHkw9MMkn/SFe3a2190tIwvL9s/sy+IjanPT1Yt9g9G1yU8z1Zy6PIE3dbwPg4pxcCNJemEzWNnLPW+KmejXvXlq++0iRAlt589N4OeEet2z83FLKSkXSy7JpcnYHNK5oipxgHHnEUIXsOJ1Rk5NKP3jWA66lX3sXGGHf+il502t9uQYnjn6wBo1c4q/lnvlOkEBs7TM8qBNY4fQo3jX3RA4axhjlnHf97ubIvZdZUGzf1LamJkAYpBA69lbMYOYp+g3VN0d+puR6PCojipWUOKIXVA6KBnHP+psc01Ofo7Xkc4R13qgj92mlM1tOgfTKUfD1AOThoXc2dDl6J7+QxrHOKkJs1ESScU97DBU5GWP1j4qmx/FuYbXkLJn9lX1PIdJwinKkQRjtwfGM9OVnnzkglG4bzYRISaTTkO+5+3pdweMHClkOLPXrkVyU+w5A+te3sIOWFxqsYYQUXIP9AeGebnktVlE0X8RyAY7RNvHHglbVTcJTu/xAyIs1epgSE+YmyDihtAemsYVKWbBghSSL+1eqK41hOHZtTit2cyRyzUOF5DYNkWJzhZbEMHJCZNhA9EPWEsFhgrDWEbWJGaHjiPbmhg+uHBZx0AMWFEZ8Ekh8GgjVqslCRWlLBXCYkH/+NUhAhPSaUT1EemasDgZngyBZCCE+W3G0BWp86sav0ZmSC2USuyAIbsVTb6QfGL/UT4Rzwcuh320C0o+tanD00lI/ePBuixBbNpgHC0QjKpST5VBkLCXr8IZsQcDWP3kpYRsH4IUmdgFAZA0Zy+ZBAnTvAA9CMLZvlFMRT4hTdCMRULGSywSYhowl4lyePXUJ5cUzgMTyOISIXToDhd7UicNI9ikpKrrP6aKbkmw0L55UGYNcxso0IVcFecpx+Ha4ntMX6xDVYpuKYa+izH65OmcoAcfrJumTzo6c6stvmkphDh4Svt/pTgM5u9Mn4KZTHRKslnOYxHoD4aZTzTYb5MieIjfWu+Jw4nk5qyryQhC2ztf5vFXnlr6IuAz1EJKcaJoU4AEo5NEUBr4WIPPdTL/o/Oqwo2UT2qV4q7UnwoeRSnyxPTqwRCWrl3tYNtgrapzt5BjKyCJp2N2kEaDZOLNgFumOEjoRHU5GIOSDSw1/KpNKy44TlPQ50HENaDvN7jyx05OmkcNZMUm9leqEj9c3KwWeaAjmaQD+6zvKE11kcKEFUU++ZSFcVlyCoMC40jOwqFBYJNQhLmDf2ySTUOyZyCK4vv3MCcnd+CA6oeYiCXHHwhSOuXylgfHtCzACk4ZOa1eU0aNZ09QDUO8+kBKhLyI6tmR07IYVbDfyXFp/q2LC0bEflwZJd74FRRMfDjiT6GbAdhc94J7x/f1VAEgB5INQwccBdp996H3fCtvBOIEazii+yMMwmxdUZ1a37LFNfHkgGkYQ3kejPGgOk34SjethCuGYf/NeOSF3K3kgZi9SuWMsTCEeXjjn9mpfSxbiSJIh86kfbmVwk++QGEVZmicKqgeuT/mNEoxfqiI6sB7WPvviJ6M/JM4XGsLgQI/mO9m0PrOS+yajLK6IgVner7V7LwDgsGfYqNL2KGSDtLUkSksojjjsy0PtYgFE8mRjjdMcxhuiMnsqpgYtZ4I4DxclafHf2MzEHTnR2Sim0NT/8U3ZaeUUH/iHMKGYAoDfI7dlrT1eaDciarKvahGnOvTMrCAPFalkG/OPyG1Q9hKIQPdfjdaX1gjHTq3B1GeWgFpfnpw4r2tPseTTVMylyXuHEi2Q7MXMTRqhcJVZdUP6gsElzDxEZaHwpYmfmpAg4nB0FUeKxvzY1qEEDuwjuBxtsB4lFZOL9KB4CklUds6ifHdTMA4aR2tu2Do6VsV23CGHAaoOVNDAqw0hs8ZpEPzs28A0EfrQPT69nXckRwKJRFto0BaEvFVq9sele6wBHLy2c/YZ+I1Q+iGE7zMhIB4oMcE4B0Gwvj3vlGjAEnZLUeyKeipGv/87b0iiVi93RFeWZxihG2LVEfrNJlxl/Q6orefR5nNeiU2viAjyAUJIIuCEyC1LXSlB69EPfJp0ZDUqPHS5UcScU2qcuWe5qojxXj4ac019COA4f57UKiXMJPUbAWCEYGktzIKo0DL7z6j/bJ4ffG1b6sPIQcTPyQcY1Dk+mDqXT6sjw6qlG6NfI4L6YIAD2Maqh4DrIoYZ6SDfSmfCXlH9hblKTjlBrVB4om0wdbq8HNJIxxC+utfOJQFYJPnmyeTsZ/m3P96BgH/0p6hRlG8oovOiCsTgd+W5PqYxAekwEhbDsHxXizLlgy7+t48vLzQoRqb+T4MGILFENIjsZtVE2uj9mnw0/JVT9ULCudrX6oV7aD8iKr45M928G7BaHs8Iv8Crzajx1pG/XIR4pxhndYSfRR4QSmE35MnJCCd4G6Fzmdm0eqmSarymKyqqTJKn0CkEF6V2pl98P8SfAjOT7oicWDL5M2Kuoq04feQJbYGN28EF7qGeXM8c0LJCy6eUFZR2dV4ddtNj7PKCHOXZjqSNqodLmAN7Jm6qN34D6TEh1a5dej0u2WOdzdQbsvr8bhHV03vu3Ji/TzFt5DIZYXiZs5bmuOPlbsw31OHtytYsP1qMjDtDx8a963AUcHfIBq98sS0Sy7U9gGkmTi0HOESU1tnj4Ux4LrkabF6SuoNoeLUeOQ6WBd3NCFpDuh2Aycv4G8itgygtth8N1A8RyAFEOlllzgn3SdJrzehHl0IfhsAkCajjPloKJT8X7KkuVZa+/HjqQ8VHuDDgjuk5qrj9Ghe6vrmGoU68dxfgDl6KTRKcJNAmhmlcavo+U3EcuBxPIHnY2GGscifTCCJgOk9WJbHevzWLLKkyvJDYI8q5AIknsU04J2PyAz2/Zf1ZbcRCyJlryk5fA7DJLVB9FifZS7Mj8Z5XinsZJVbtHViTJBQla3HnUT59bYVNnzpZlyp7I7q+czvQ6/74gOaO9fnOPw8LrcBfpoWsf3mmHY9MoHYOwpfR5BVrfW9OIR0+oFTfLV35dKiarvdiUOCNuoTvncWEofLe7cDQbdVowBPqMPOdpNGAMeK8Rnyh2HpURL+Oq932VxkOxrQjHU5fRRTXgThi3V56HBZ33vWTUtfkd7ZfdqcUp0VBYzoMPPUDwLT6UqzLnwKWeAFpDV5W8kFxSykndA7oSL6Gv1jXgXJ2+jltur6aMu967nFW8kz+dOeyakr41XC9GZCwefixX353xfvfdLcEB8upxRjNz0Gb+ADYTxC9hAkN1pnwh5ktXpvEO1OmHdIfr6da6vFoyQT5eXuoaanz7PTlZFX2aMLtFXs5To00r0NWmj3pu56rOyb13ja0TpXYmmOvbV/y6ZEsHiAx7uhZHvA8sFoAflC7MVMvo3WM5nKdHS9HXcRrXy12eTdhD/SdTF24GLFe/9zGGYLD50GrV5Yq5Dn+cmqzKn2OFVosbVUvSVt1GD2FyHPg8jq5IXiWeE5d+gLhPscUpUf7eYvnKK4Z7b69Jn/hvUM8JS7zicFha841B8p6BqxmdEthdW9McjnP6ttTZ9tma945B2IjdVFMjO1kA1Et8BlUD4mX3hEX1tfJtPX/n9bzCpuQ59NoWsCtHH0OKPdCS6Mr+iX8M2qgOvBFqnPs9OVsUnpmktfn3F7u/Z9DVpo7bgnZ5PvYOWAygvsiqQQ00bJSlR8HqGr64eeUQxrPXro6xEVlNSHm8LFwQkh9A4I1/tvZdXiZI2amw+hT6L3xaurpWspgWb/5tzugOu2Pglo6/URi16/SfS5+nGgJfOXLX7S/LV2744g09tVEYxlCfTJ2OqimCqT0E1phTSogMys6JQ0eej4oxi6E+nz2YBBL5D0/rXJVlKVPuK11MFxbb5hA9sLQCpD1cIk8eY3xKz7b0/TCCqvnxVxxu33J7xhPosBmjtTlpCDjWTuq8O20Sfjvb39vb2j179oovZvSFOhj2pPnPJqs7WmKbpuDi3WyAUFgoFUUh+kcLoK+XVDf/bly9fPvtw1TjMO59FhWfQZyYKCr68Mgekt1bdidFt0iuubO8kN9Y77llOT35lfeQ78SmpxpSgaT2vNLkoEgZCivXyAV5m/hz6PDdZlSkUd8tw42qCT718OTJycq5/IlkVBMWyRme+65fq9XrJ97zuhZXbe+L/OLI6QyHTMC8Oht1u97Z1EVumNDw/pT4SgLhC6kMVyrR61cwTs9I6JC/6ySiEf+aOlCjp1rPrk71h9KnJ6mJyuGn6PD0XSz95ZRnT2Diq8azsOS/f8aeS1b9iB/0HUBagtTvFZ6EI+ZHVRRTw8YK+QFjPb81JH135W598Tvo8K9VYZ6HrTyCrf4Wzf142/wfkU3IuRsLM0X91Se4z1ZsnHTIKqWmF1DRAm6KP+n/ymWbmEZxHuQAAAABJRU5ErkJggg==;" parent="-IeSadfAtOniTE9cs8pw-1" vertex="1">
          <mxGeometry x="-235.54999999999995" y="-20" width="127.55" height="77.5" as="geometry" />
        </mxCell>
        <mxCell id="bMs_5W-u8ojUwNO5Q7yX-0" value="" style="shape=image;verticalLabelPosition=bottom;labelBackgroundColor=#ffffff;verticalAlign=top;aspect=fixed;imageAspect=0;image=data:image/png,iVBORw0KGgoAAAANSUhEUgAAAOEAAADhCAMAAAAJbSJIAAAAhFBMVEX///8AAAATExNcXFzn5+fAwMBwcHBHR0fd3d3V1dX8/Pzz8/M6OjpDQ0Otra2FhYXv7+8uLi7Kysq3t7d7e3vj4+OdnZ2ysrKLi4tiYmLHx8fX19ccHBybm5uqqqokJCRRUVE0NDSKiopsbGwoKCiAgIAXFxcNDQ0eHh5WVlaTk5NgYGDDl8T0AAAJb0lEQVR4nO2daVvqPBCGBVlbFxYRQUFwQ/H//7/z8h6P5knTZibNJK1X7o9K2jxtJ8tkMjk7SyQSiUQikUgkEglP5P0rK/NR7Fq6Mxl0SLzNY9fUkcU7TeB/vMauqxt7ssBO5zZ2ZV24YgjsHPLY1XVgx1HYWcaurgMHlsJB7Oo6wFPYiV1dBy55ClvYK97yFG5j15dPzlP4Ebu+DsxYCrtZ7Po6MBpyJI5jV9eJ+9vrCp4eVIWb2JWV4FlVeB67NhLMVYWHSezqCLD4BYZoAcY9x9i1keBGVbiLXRsJwBA7bZxB2cBxTz92dSS4UBXexa6NBE+qwsfYtZFgDZ/pb+wRJ7/fEMGbcxO7NhLcqQr3sWsjAU4iF7GrI0AOA7e2uvcrgVlyG32KVsBhNW2jK8PG+Ncb4hkobKFP0c4nSOy2gLfhhjX62nbaCOdjW9gv10QYK54Zfam4UfToEomr/U3jia6QtVjcHKZ0hS01RM6K54X9ag2E45FopyGuGArn9ss1EE6P2ItdWSdYy/KPsWvrAG9F9zp2dR145gg860PZUY/OSC24XxBKTKDlnjHuhcbEmwVlUJbjU4RlgQtSEYiC4cxHcSbLjI6Bu14zCqJCkmlcutZzA98L0xsBPsUHRsGQCsG1yzND3afIWGULqHDyphbkegVxlY1ROqDCmp7dc7U0w6cYUCFY0ju93BdHtfgLvVxAhTVXWFxb4nAKnQ3pX3kIj6IHDIdTiKMSh5CDD7U8vSkOpxBWq10WydC5T35E4RS+qMUYPppvHJ37wRSiGa6pxVTgCmRnZDCFHiJ/VuoVyIYYTKGH6C107lNLBVMIZugW+IOzL2qcYiiFI6faaYArg2qIoRQu1UJvjnE/8KUPiYVCzYAhmnlHLKQDj6mz7pOAJm5KKbHeq0W2tNv0py4fmE57fIrOwcytce67CkRDbDDuu3v69os3AvdoirYYYo2ImH3supM4uAvEKVhjqROZ1g5DvKqhMLNfvgEwYjCKtKFHpA1+yzjabxCdegGivF2ncagXbY/OkOHADoz53wgFBgPwW64IBTB1Qs34ULZzHxon2uwJgpIpzQbYDiNOyAgs0XUJBULMgOEd1s3Ccg8fxL29QACFfje95ODKIAxxAyjEcUjtQHQwRELUUQCFEChS1ww1n+Kj3fEaQCF8VvV38nINUV4hmuGMcodq4Hr2JATyCr1v5IUu3G6I8gohcNJHVgT0KVqrLK+wq/7cx4Z6pnNfXKEXdz7CywYirhC+qXcv++lfoc62X4srhEU/P1mCsO2y1VlaYQbufD+7stAQbcvJ0goFzFCrgW0tUlohpvOiCbDCMkRphWCGnOj8KjAJgWWKKqwQvX91/IgqLEMUnuOjGXrb4Ao+xcdhJfBCDtW//QI2j19W/xZa0jrufATCHBuEv4wPa/vNouAxAWlsKSXUcucjzKyZgbj0mCtgY79dBHwmXhnbbxcBn8lzmrnK5tEMtbFSQ6ANJ6gw09cGwSUsuJyR/YbB8ZvDKn+x3zE0nvPKNM8Q/ZqhloTgYTwqBTqWffnvfujBwL6/KP8l7OTynZgTnfsVkzjB+FLv7nyE+vwEZ8CYzMJ7eieqL11QIawvfHIFWEHnfrkjVlAh1MB/omqqEcgpxD5ZIOs/pOUpN0Q5hdy1WjZEn6KcQu56Oxuic19MITtmgg0xxkNMITvuhQ+4NUuTEIgpBD8DJ0MAHVqQh5hCyJPHTS9Ag+bcl1KIMYQyBxlNwDddZohSCtFV5NWB8QMYYpmjS0ohxCP6c+dX3KSs8lIKSY+3LhgwXPKhCClEb59Y7l+4S8nanZBCjEcUS6RO+VKEZsCw/EXd7ckHfIqP4/txkXv4lPfG32iMwIsxN5YYwbqh3OGMOHCKh1N6ARqxpX0h1BueeLbfPQByZtgU577kuSLNSGzq3Y+okE/t95dHNE18EwzxUlKg5lOMg+w5vhN7BcQR7CtOxN+iLzO9V9hHFvgifo5YFncl8SPEQWnj4+o8Dqsnya4wkUgkopGNt4OL016rx89N31dLnvU3q1MAz2E/uJ1FPY4pm2lHDOy29b1g+fIDL/rcjyZyacqacV1PY37sFq853UbROC7LClJn7F92OsqLoPOpjIr4/b3ra8x35RcNfRJj9llel07nzW3D1aLSg7ALemJoz5a3xmVhwbbn4SHgEXC5/fgLfvAnIVGM8NxXgbI5gRvRQ8mctg91xjRpnv/IM5uMlK9JIorGAPHguR3rosR5dZDT3snOKM7mQHLatBCtDf0sKLrVZOSTe3Ziur4pOvafl4vepDd7fdP/QQ+QLA5lbtanc2Tmxccp78fQm5nVdxOeFdZtqKPJQjNz911yomuUb2y0G0IEXe8B/0nt97WuEIdEuolKd4raeWWahgnaEzXxCH4XB6010fTLOvX1dqbQeGMcLzUJNU6YCoNatFIf+VqqgJdkOIDoWF1ZIzicMSSFQzOtK6EabEkNdoaRPbTWFL98w3uvdXIVE7hX19ThwQojbVIHbbDxI4QYc9nD0OFxG1OnwC9oTTvYtrEhgaZI9pRpGJMaA3fgLe9IF4UQdeO0C6zb/04LFQhFNj5uGLbSdltDMJnRyqA19buzUgdMxjjQh/6CFvkC3hlj82u/rTfgYRpXY8EXQeu7YOZkjG+GnNSyXT7U33gCEZgMLQEu1N/Y/IKP2FfKFjP2TQ/gL6NFL0Hz9W4wXeGNh0AO0eyG542DSFrXZS2DvllhZw20e4aXiE4q2oxcy2dQ+D++wvrpPKvBOWAhIRyeQUvdjIyubr0By/CpcY4MdUGb4g9Ropb+m9qua74tHEnowR/ik/w93u9F6b8yPeqNOkbWnVvnynNbaPP/qfgyVOHI7tX47z17hfzt9JR/BQ/s3V8LzkYFR430BPjMFBT1/nzzOhgW/szYQWeIW70YvN4MipkcjPMZz5BdmxyfETlcTnZi8cW5vR7/w3EZURPgSHcVf8kN69AGeBNV4hEFgRbYSNsuuOHmpCD5YGvdhfa0CD91KsEUA7Sj/7A+cJctEZUL5yfkNgMZsLxFt7CC6+qLBmlGf7gvrMMouH5NlXHywUNLJ6WdRte9PbgvXWUbhlvD/wHPLfzHoZ4b5fbBdNGprI+0nH7hPV5s6o6q8m0hDmIXS9+J3laZTwyPYy8D/9FGmTCubgOG0ZSQz+bLq3nfr6H01vPlcj4LFV6SSCQSiUQikUgkEj/8AWJ4m338uIc8AAAAAElFTkSuQmCC;" parent="-IeSadfAtOniTE9cs8pw-1" vertex="1">
          <mxGeometry x="375.75" y="83.61999999999999" width="51.25" height="51.25" as="geometry" />
        </mxCell>
        <mxCell id="14Yss7oODA9hiDUXDA_0-0" value="" style="rounded=1;whiteSpace=wrap;html=1;strokeWidth=2;fillWeight=4;hachureGap=8;hachureAngle=45;sketch=1;labelBackgroundColor=#ffffff;fillColor=#FF0000;" parent="-IeSadfAtOniTE9cs8pw-1" vertex="1">
          <mxGeometry x="41" y="516.5699999999999" width="204" height="248.43" as="geometry" />
        </mxCell>
        <mxCell id="14Yss7oODA9hiDUXDA_0-1" value="" style="rounded=1;whiteSpace=wrap;html=1;strokeWidth=2;fillWeight=4;hachureGap=8;hachureAngle=45;sketch=1;labelBackgroundColor=#ffffff;fillColor=#FF0000;" parent="-IeSadfAtOniTE9cs8pw-1" vertex="1">
          <mxGeometry x="259" y="515" width="206" height="250" as="geometry" />
        </mxCell>
        <mxCell id="14Yss7oODA9hiDUXDA_0-2" value="" style="rounded=1;whiteSpace=wrap;html=1;strokeWidth=2;fillWeight=4;hachureGap=8;hachureAngle=45;sketch=1;labelBackgroundColor=#ffffff;fillColor=#FF0000;" parent="-IeSadfAtOniTE9cs8pw-1" vertex="1">
          <mxGeometry x="-620" y="515" width="206" height="250" as="geometry" />
        </mxCell>
        <mxCell id="14Yss7oODA9hiDUXDA_0-3" value="" style="rounded=1;whiteSpace=wrap;html=1;strokeWidth=2;fillWeight=4;hachureGap=8;hachureAngle=45;sketch=1;labelBackgroundColor=#ffffff;fillColor=#FF0000;" parent="-IeSadfAtOniTE9cs8pw-1" vertex="1">
          <mxGeometry x="-398" y="518.13" width="203" height="246.87" as="geometry" />
        </mxCell>
        <mxCell id="14Yss7oODA9hiDUXDA_0-4" value="" style="rounded=1;whiteSpace=wrap;html=1;strokeWidth=2;fillWeight=4;hachureGap=8;hachureAngle=45;sketch=1;labelBackgroundColor=#ffffff;fillColor=#FF0000;" parent="-IeSadfAtOniTE9cs8pw-1" vertex="1">
          <mxGeometry x="-178" y="518.13" width="203" height="246.87" as="geometry" />
        </mxCell>
        <mxCell id="puOaJrI2LO9zuMeCfxqP-1" value="BierClub" style="text;html=1;strokeColor=none;fillColor=none;align=center;verticalAlign=middle;whiteSpace=wrap;rounded=0;fontSize=40;" parent="-IeSadfAtOniTE9cs8pw-1" vertex="1">
          <mxGeometry x="-25" y="7.75" width="40" height="20" as="geometry" />
        </mxCell>
        <mxCell id="puOaJrI2LO9zuMeCfxqP-4" value="" style="endArrow=none;html=1;fontSize=20;entryX=0;entryY=0.902;entryDx=0;entryDy=0;entryPerimeter=0;" parent="-IeSadfAtOniTE9cs8pw-1" edge="1">
          <mxGeometry width="50" height="50" relative="1" as="geometry">
            <mxPoint x="-670" y="77" as="sourcePoint" />
            <mxPoint x="530" y="72.33999999999969" as="targetPoint" />
          </mxGeometry>
        </mxCell>
        <mxCell id="omzU5YP--gjULZp6Y4Di-0" value="Los mejores produtos" style="text;html=1;strokeColor=none;fillColor=none;align=center;verticalAlign=middle;whiteSpace=wrap;rounded=0;fontSize=40;" vertex="1" parent="-IeSadfAtOniTE9cs8pw-1">
          <mxGeometry x="-328.75" y="809" width="507.5" height="20" as="geometry" />
        </mxCell>
        <mxCell id="omzU5YP--gjULZp6Y4Di-9" value="" style="rounded=1;whiteSpace=wrap;html=1;strokeWidth=2;fillWeight=4;hachureGap=8;hachureAngle=45;sketch=1;labelBackgroundColor=#ffffff;fillColor=#FF0000;" vertex="1" parent="-IeSadfAtOniTE9cs8pw-1">
          <mxGeometry x="46" y="971.5699999999999" width="204" height="248.43" as="geometry" />
        </mxCell>
        <mxCell id="omzU5YP--gjULZp6Y4Di-10" value="" style="rounded=1;whiteSpace=wrap;html=1;strokeWidth=2;fillWeight=4;hachureGap=8;hachureAngle=45;sketch=1;labelBackgroundColor=#ffffff;fillColor=#FF0000;" vertex="1" parent="-IeSadfAtOniTE9cs8pw-1">
          <mxGeometry x="264" y="970" width="206" height="250" as="geometry" />
        </mxCell>
        <mxCell id="omzU5YP--gjULZp6Y4Di-11" value="" style="rounded=1;whiteSpace=wrap;html=1;strokeWidth=2;fillWeight=4;hachureGap=8;hachureAngle=45;sketch=1;labelBackgroundColor=#ffffff;fillColor=#FF0000;" vertex="1" parent="-IeSadfAtOniTE9cs8pw-1">
          <mxGeometry x="-615" y="970" width="206" height="250" as="geometry" />
        </mxCell>
        <mxCell id="omzU5YP--gjULZp6Y4Di-12" value="" style="rounded=1;whiteSpace=wrap;html=1;strokeWidth=2;fillWeight=4;hachureGap=8;hachureAngle=45;sketch=1;labelBackgroundColor=#ffffff;fillColor=#FF0000;" vertex="1" parent="-IeSadfAtOniTE9cs8pw-1">
          <mxGeometry x="-393" y="973.13" width="203" height="246.87" as="geometry" />
        </mxCell>
        <mxCell id="omzU5YP--gjULZp6Y4Di-13" value="" style="rounded=1;whiteSpace=wrap;html=1;strokeWidth=2;fillWeight=4;hachureGap=8;hachureAngle=45;sketch=1;labelBackgroundColor=#ffffff;fillColor=#FF0000;" vertex="1" parent="-IeSadfAtOniTE9cs8pw-1">
          <mxGeometry x="-173" y="973.13" width="203" height="246.87" as="geometry" />
        </mxCell>
        <mxCell id="omzU5YP--gjULZp6Y4Di-14" value="Novedades" style="text;html=1;strokeColor=none;fillColor=none;align=center;verticalAlign=middle;whiteSpace=wrap;rounded=0;fontSize=40;" vertex="1" parent="-IeSadfAtOniTE9cs8pw-1">
          <mxGeometry x="-308.43" y="470" width="507.5" height="20" as="geometry" />
        </mxCell>
        <mxCell id="pUqItulTAK_aOpL8O4BK-2" value="" style="triangle;whiteSpace=wrap;html=1;fontSize=22;rotation=-180;" vertex="1" parent="-IeSadfAtOniTE9cs8pw-1">
          <mxGeometry x="-615" y="1090" width="30" height="30" as="geometry" />
        </mxCell>
        <mxCell id="pUqItulTAK_aOpL8O4BK-3" value="" style="triangle;whiteSpace=wrap;html=1;fontSize=22;" vertex="1" parent="-IeSadfAtOniTE9cs8pw-1">
          <mxGeometry x="440.37" y="1100" width="30" height="30" as="geometry" />
        </mxCell>
        <mxCell id="pUqItulTAK_aOpL8O4BK-5" value="&lt;font style=&quot;font-size: 20px&quot;&gt;Populares&lt;/font&gt;" style="html=1;shadow=0;dashed=0;shape=mxgraph.bootstrap.rrect;rSize=5;strokeColor=none;strokeWidth=1;fillColor=#FFBC26;fontColor=#FFFFFF;whiteSpace=wrap;align=center;verticalAlign=middle;spacingLeft=0;fontStyle=0;fontSize=16;spacing=5;" vertex="1" parent="-IeSadfAtOniTE9cs8pw-1">
          <mxGeometry x="-450.75" y="890" width="100" height="40" as="geometry" />
        </mxCell>
        <mxCell id="pUqItulTAK_aOpL8O4BK-9" value="&lt;span style=&quot;font-size: 20px&quot;&gt;Especiales&lt;/span&gt;" style="html=1;shadow=0;dashed=0;shape=mxgraph.bootstrap.rrect;rSize=5;strokeColor=none;strokeWidth=1;fillColor=#FFBC26;fontColor=#FFFFFF;whiteSpace=wrap;align=center;verticalAlign=middle;spacingLeft=0;fontStyle=0;fontSize=16;spacing=5;" vertex="1" parent="-IeSadfAtOniTE9cs8pw-1">
          <mxGeometry x="149" y="890" width="180" height="40" as="geometry" />
        </mxCell>
        <mxCell id="pUqItulTAK_aOpL8O4BK-10" value="&lt;font style=&quot;font-size: 20px&quot;&gt;Mas Vendidos&lt;/font&gt;" style="html=1;shadow=0;dashed=0;shape=mxgraph.bootstrap.rrect;rSize=5;strokeColor=none;strokeWidth=1;fillColor=#FFBC26;fontColor=#FFFFFF;whiteSpace=wrap;align=center;verticalAlign=middle;spacingLeft=0;fontStyle=0;fontSize=16;spacing=5;" vertex="1" parent="-IeSadfAtOniTE9cs8pw-1">
          <mxGeometry x="-74.5" y="890" width="180" height="40" as="geometry" />
        </mxCell>
        <mxCell id="pUqItulTAK_aOpL8O4BK-11" value="&lt;font style=&quot;font-size: 20px&quot;&gt;Nuevos Productos&lt;/font&gt;" style="html=1;shadow=0;dashed=0;shape=mxgraph.bootstrap.rrect;rSize=5;strokeColor=none;strokeWidth=1;fillColor=#FFBC26;fontColor=#FFFFFF;whiteSpace=wrap;align=center;verticalAlign=middle;spacingLeft=0;fontStyle=0;fontSize=16;spacing=5;" vertex="1" parent="-IeSadfAtOniTE9cs8pw-1">
          <mxGeometry x="-302" y="890" width="180" height="40" as="geometry" />
        </mxCell>
        <mxCell id="W8YWQkzo3zen0P_c8k7y-0" value="Productos" style="html=1;shadow=0;dashed=0;shape=mxgraph.bootstrap.rrect;rSize=5;strokeColor=none;strokeWidth=1;fillColor=#6C767D;fontColor=#FFFFFF;whiteSpace=wrap;align=left;verticalAlign=middle;spacingLeft=10;fontStyle=1;fontSize=18;" vertex="1" parent="-IeSadfAtOniTE9cs8pw-1">
          <mxGeometry x="-438" y="92.87" width="110" height="40" as="geometry" />
        </mxCell>
        <mxCell id="W8YWQkzo3zen0P_c8k7y-3" value="Quienes Somos?" style="html=1;shadow=0;dashed=0;shape=mxgraph.bootstrap.rrect;rSize=5;strokeColor=none;strokeWidth=1;fillColor=#6C767D;fontColor=#FFFFFF;whiteSpace=wrap;align=left;verticalAlign=middle;spacingLeft=10;fontStyle=1;fontSize=18;" vertex="1" parent="-IeSadfAtOniTE9cs8pw-1">
          <mxGeometry x="140.68" y="88.62" width="170" height="40" as="geometry" />
        </mxCell>
        <mxCell id="W8YWQkzo3zen0P_c8k7y-4" value="&lt;font style=&quot;font-size: 15px&quot;&gt;Login&lt;/font&gt;" style="html=1;shadow=0;dashed=0;shape=mxgraph.bootstrap.rrect;rSize=5;strokeColor=none;strokeWidth=1;fillColor=#6C767D;fontColor=#FFFFFF;whiteSpace=wrap;align=left;verticalAlign=middle;spacingLeft=10;fontStyle=1;fontSize=18;" vertex="1" parent="-IeSadfAtOniTE9cs8pw-1">
          <mxGeometry x="408.37" y="-95" width="61.63" height="30" as="geometry" />
        </mxCell>
        <mxCell id="W8YWQkzo3zen0P_c8k7y-2" value="Envios" style="html=1;shadow=0;dashed=0;shape=mxgraph.bootstrap.rrect;rSize=5;strokeColor=none;strokeWidth=1;fillColor=#6C767D;fontColor=#FFFFFF;whiteSpace=wrap;align=left;verticalAlign=middle;spacingLeft=10;fontStyle=1;fontSize=18;" vertex="1" parent="-IeSadfAtOniTE9cs8pw-1">
          <mxGeometry x="-18" y="89.62" width="81" height="40" as="geometry" />
        </mxCell>
        <mxCell id="W8YWQkzo3zen0P_c8k7y-1" value="Promociones" style="html=1;shadow=0;dashed=0;shape=mxgraph.bootstrap.rrect;rSize=5;strokeColor=none;strokeWidth=1;fillColor=#6C767D;fontColor=#FFFFFF;whiteSpace=wrap;align=left;verticalAlign=middle;spacingLeft=10;fontStyle=1;fontSize=18;" vertex="1" parent="-IeSadfAtOniTE9cs8pw-1">
          <mxGeometry x="-250" y="91.62" width="140" height="40" as="geometry" />
        </mxCell>
        <mxCell id="W8YWQkzo3zen0P_c8k7y-6" value="" style="endArrow=none;html=1;fontSize=20;entryX=0;entryY=0.902;entryDx=0;entryDy=0;entryPerimeter=0;" edge="1" parent="-IeSadfAtOniTE9cs8pw-1">
          <mxGeometry width="50" height="50" relative="1" as="geometry">
            <mxPoint x="-670" y="-60" as="sourcePoint" />
            <mxPoint x="530" y="-60.00000000000031" as="targetPoint" />
          </mxGeometry>
        </mxCell>
        <mxCell id="W8YWQkzo3zen0P_c8k7y-7" value="&lt;font style=&quot;font-size: 15px&quot;&gt;Registrarse&lt;/font&gt;" style="html=1;shadow=0;dashed=0;shape=mxgraph.bootstrap.rrect;rSize=5;strokeColor=none;strokeWidth=1;fillColor=#6C767D;fontColor=#FFFFFF;whiteSpace=wrap;align=left;verticalAlign=middle;spacingLeft=10;fontStyle=1;fontSize=18;" vertex="1" parent="-IeSadfAtOniTE9cs8pw-1">
          <mxGeometry x="273" y="-94" width="108" height="30" as="geometry" />
        </mxCell>
        <mxCell id="W8YWQkzo3zen0P_c8k7y-8" value="" style="image;html=1;image=img/lib/clip_art/telecommunication/iPhone_128x128.png" vertex="1" parent="-IeSadfAtOniTE9cs8pw-1">
          <mxGeometry x="-589" y="-90" width="20" height="30" as="geometry" />
        </mxCell>
        <mxCell id="W8YWQkzo3zen0P_c8k7y-9" value="&lt;font style=&quot;font-size: 18px&quot;&gt;Contactanos: 123456789&lt;/font&gt;" style="text;html=1;strokeColor=none;fillColor=none;align=center;verticalAlign=middle;whiteSpace=wrap;rounded=0;" vertex="1" parent="-IeSadfAtOniTE9cs8pw-1">
          <mxGeometry x="-556" y="-85" width="210" height="20" as="geometry" />
        </mxCell>
        <mxCell id="yrV34StYVYOZKB5w-j-d-0" value="" style="triangle;whiteSpace=wrap;html=1;fontSize=22;rotation=-180;" vertex="1" parent="-IeSadfAtOniTE9cs8pw-1">
          <mxGeometry x="-620" y="630.44" width="30" height="30" as="geometry" />
        </mxCell>
        <mxCell id="yrV34StYVYOZKB5w-j-d-1" value="" style="triangle;whiteSpace=wrap;html=1;fontSize=22;" vertex="1" parent="-IeSadfAtOniTE9cs8pw-1">
          <mxGeometry x="435" y="625" width="30" height="30" as="geometry" />
        </mxCell>
        <mxCell id="44nTg0r90U1Ns_E20gfh-0" value="" style="rounded=1;whiteSpace=wrap;html=1;strokeWidth=2;fillWeight=4;hachureGap=8;hachureAngle=45;sketch=1;labelBackgroundColor=#ffffff;arcSize=0;fontColor=#FFFF33;fillColor=#E6E6E6;" vertex="1" parent="-IeSadfAtOniTE9cs8pw-1">
          <mxGeometry x="-670" y="1280" width="1200" height="640" as="geometry" />
        </mxCell>
        <mxCell id="44nTg0r90U1Ns_E20gfh-1" value="&lt;font style=&quot;font-size: 30px&quot;&gt;Sobre nosotros&lt;/font&gt;" style="text;html=1;strokeColor=none;fillColor=none;align=center;verticalAlign=middle;whiteSpace=wrap;rounded=0;fontSize=40;" vertex="1" parent="-IeSadfAtOniTE9cs8pw-1">
          <mxGeometry x="-345.99999999999994" y="1470" width="507.5" height="20" as="geometry" />
        </mxCell>
        <mxCell id="44nTg0r90U1Ns_E20gfh-3" value="&lt;font style=&quot;font-size: 30px&quot;&gt;Contactanos&lt;/font&gt;" style="text;html=1;strokeColor=none;fillColor=none;align=center;verticalAlign=middle;whiteSpace=wrap;rounded=0;fontSize=40;" vertex="1" parent="-IeSadfAtOniTE9cs8pw-1">
          <mxGeometry x="-697.5" y="1470" width="507.5" height="20" as="geometry" />
        </mxCell>
        <mxCell id="44nTg0r90U1Ns_E20gfh-8" value="" style="rounded=1;whiteSpace=wrap;html=1;strokeWidth=2;fillWeight=4;hachureGap=8;hachureAngle=45;sketch=1;labelBackgroundColor=#ffffff;arcSize=0;fontColor=#FFFF33;fillColor=#E6E6E6;" vertex="1" parent="-IeSadfAtOniTE9cs8pw-1">
          <mxGeometry x="-670" y="1280" width="1200" height="150" as="geometry" />
        </mxCell>
        <mxCell id="44nTg0r90U1Ns_E20gfh-2" value="&lt;font style=&quot;font-size: 45px&quot;&gt;Newsletter&lt;/font&gt;" style="text;html=1;strokeColor=none;fillColor=none;align=center;verticalAlign=middle;whiteSpace=wrap;rounded=0;fontSize=40;" vertex="1" parent="-IeSadfAtOniTE9cs8pw-1">
          <mxGeometry x="-305.75" y="1320" width="507.5" height="20" as="geometry" />
        </mxCell>
        <mxCell id="44nTg0r90U1Ns_E20gfh-4" value="" style="group" vertex="1" connectable="0" parent="-IeSadfAtOniTE9cs8pw-1">
          <mxGeometry x="-290" y="1370" width="490.25" height="40" as="geometry" />
        </mxCell>
        <mxCell id="44nTg0r90U1Ns_E20gfh-5" value="Email" style="fillColor=none;strokeColor=none;align=left;fontSize=16;fontColor=#212529;" vertex="1" parent="44nTg0r90U1Ns_E20gfh-4">
          <mxGeometry x="23.345238095238095" width="466.9047619047619" height="40" as="geometry" />
        </mxCell>
        <mxCell id="44nTg0r90U1Ns_E20gfh-6" value="" style="html=1;shadow=0;dashed=0;shape=mxgraph.bootstrap.rrect;rSize=5;fillColor=none;strokeColor=#999999;align=left;spacing=15;fontSize=16;fontColor=#6C767D;" vertex="1" parent="44nTg0r90U1Ns_E20gfh-4">
          <mxGeometry width="466.9047619047619" height="40" as="geometry" />
        </mxCell>
        <mxCell id="44nTg0r90U1Ns_E20gfh-9" value="&lt;font style=&quot;font-size: 30px&quot;&gt;Donde nos encontramos&lt;/font&gt;" style="text;html=1;strokeColor=none;fillColor=none;align=center;verticalAlign=middle;whiteSpace=wrap;rounded=0;fontSize=40;" vertex="1" parent="-IeSadfAtOniTE9cs8pw-1">
          <mxGeometry x="59.680000000000064" y="1470" width="507.5" height="20" as="geometry" />
        </mxCell>
        <mxCell id="44nTg0r90U1Ns_E20gfh-11" value="" style="group" vertex="1" connectable="0" parent="-IeSadfAtOniTE9cs8pw-1">
          <mxGeometry x="80" y="1530" width="487.18" height="300" as="geometry" />
        </mxCell>
        <mxCell id="44nTg0r90U1Ns_E20gfh-7" value="" style="rounded=1;whiteSpace=wrap;html=1;strokeWidth=2;fillWeight=4;hachureGap=8;hachureAngle=45;fillColor=#1ba1e2;sketch=1;labelBackgroundColor=#ffffff;arcSize=0;" vertex="1" parent="44nTg0r90U1Ns_E20gfh-11">
          <mxGeometry width="451.4886652216748" height="300" as="geometry" />
        </mxCell>
        <mxCell id="44nTg0r90U1Ns_E20gfh-10" value="&lt;font style=&quot;font-size: 30px&quot;&gt;Google map&lt;/font&gt;" style="text;html=1;strokeColor=none;fillColor=none;align=center;verticalAlign=middle;whiteSpace=wrap;rounded=0;fontSize=40;" vertex="1" parent="44nTg0r90U1Ns_E20gfh-11">
          <mxGeometry x="6.138837221809754e-14" y="140" width="487.17999999999995" height="20" as="geometry" />
        </mxCell>
        <mxCell id="44nTg0r90U1Ns_E20gfh-12" value="" style="rounded=1;whiteSpace=wrap;html=1;strokeWidth=2;fillWeight=4;hachureGap=8;hachureAngle=45;sketch=1;labelBackgroundColor=#ffffff;arcSize=0;fontColor=#FFFF33;fillColor=#E6E6E6;" vertex="1" parent="-IeSadfAtOniTE9cs8pw-1">
          <mxGeometry x="-670" y="1830" width="1200" height="90" as="geometry" />
        </mxCell>
        <mxCell id="44nTg0r90U1Ns_E20gfh-13" value="&lt;font style=&quot;font-size: 30px&quot;&gt;Copyright&lt;/font&gt;" style="text;html=1;strokeColor=none;fillColor=none;align=center;verticalAlign=middle;whiteSpace=wrap;rounded=0;fontSize=40;" vertex="1" parent="-IeSadfAtOniTE9cs8pw-1">
          <mxGeometry x="-379.99999999999994" y="1865" width="507.5" height="20" as="geometry" />
        </mxCell>
      </root>
    </mxGraphModel>
  </diagram>
</mxfile>
